<?xml version="1.0" encoding="UTF-8"?>
<svg xmlns="http://www.w3.org/2000/svg" width="179.925mm" height="109.919mm" viewBox="3.402962 -112.930740 179.925262 109.919022">
    <path transform="matrix(1,0,0,-1,-0.987526,-208.260513)" style="stroke:#000000;stroke-width:0.05mm;fill:none" d="M15.07128,-103.025902C15.071142,-103.82695,14.42185,-104.476028,13.62128,-104.475891C12.820471,-104.475891,12.171286,-103.826714,12.17128,-103.025902C12.171417,-102.224861,12.820704,-101.57579,13.62128,-101.57592C14.422086,-101.57592,15.07127,-102.22509,15.07128,-103.025902z"/>
    <path transform="matrix(1,0,0,-1,-0.987526,-208.260513)" style="stroke:#000000;stroke-width:0.05mm;fill:none" d="M15.13723,-197.090912C15.137093,-197.891968,14.487796,-198.541046,13.68723,-198.540909C12.886418,-198.540909,12.237232,-197.891724,12.23723,-197.090912C12.237368,-196.289856,12.886664,-195.640778,13.68723,-195.640915C14.488042,-195.640915,15.137228,-196.2901,15.13723,-197.090912z"/>
    <path transform="matrix(1,0,0,-1,-0.987526,-208.260513)" style="stroke:#000000;stroke-width:0.05mm;fill:none" d="M176.713409,-103.025879C176.713272,-103.826927,176.06398,-104.475998,175.263412,-104.475868C174.462601,-104.475876,173.8134,-103.826698,173.8134,-103.025879C173.813538,-102.224831,174.46283,-101.57576,175.263412,-101.575897C176.064224,-101.575897,176.713409,-102.225075,176.713409,-103.025879z"/>
    <path transform="matrix(1,0,0,-1,-0.987526,-208.260513)" style="stroke:#000000;stroke-width:0.05mm;fill:none" d="M176.647461,-197.089294C176.647324,-197.89035,175.998032,-198.539429,175.197464,-198.539307C174.396637,-198.539307,173.747452,-197.890137,173.747452,-197.089294C173.747589,-196.288239,174.396896,-195.63916,175.197464,-195.639313C175.998276,-195.639313,176.647461,-196.288483,176.647461,-197.089294z"/>
    <path transform="matrix(1,0,0,-1,-0.987526,-208.260513)" style="stroke:#000000;stroke-width:0.05mm;fill:none" d="M104.612801,-201.901596C98.112007,-201.901596,91.279991,-201.901596,84.612801,-201.901596"/>
    <path transform="matrix(1,0,0,-1,-0.987526,-208.260513)" style="stroke:#000000;stroke-width:0.05mm;fill:none" d="M84.612801,-201.901596C84.612801,-202.989563,84.612801,-204.132965,84.612801,-205.248795"/>
    <path transform="matrix(1,0,0,-1,-0.987526,-208.260513)" style="stroke:#000000;stroke-width:0.05mm;fill:none" d="M104.612801,-201.901596C104.612801,-202.989563,104.612801,-204.132965,104.612801,-205.248795"/>
    <path transform="matrix(1,0,0,-1,-0.987526,-208.260513)" style="stroke:#000000;stroke-width:0.05mm;fill:none" d="M4.616674,-205.089676C31.221682,-205.089676,57.826519,-205.089676,84.431206,-205.089676"/>
    <path transform="matrix(1,0,0,-1,-0.987526,-208.260513)" style="stroke:#000000;stroke-width:0.05mm;fill:none" d="M104.794395,-205.089661C131.298813,-205.089661,157.803055,-205.089661,184.307159,-205.089661"/>
    <path transform="matrix(1,0,0,-1,-0.987526,-208.260513)" style="stroke:#000000;stroke-width:0.05mm;fill:none" d="M181.00856,-160.139664C181.00856,-153.63887,181.00856,-146.806854,181.00856,-140.139664"/>
    <path transform="matrix(1,0,0,-1,-0.987526,-208.260513)" style="stroke:#000000;stroke-width:0.05mm;fill:none" d="M181.00856,-140.139664C182.013382,-140.139664,183.069397,-140.139664,184.099945,-140.139664"/>
    <path transform="matrix(1,0,0,-1,-0.987526,-208.260513)" style="stroke:#000000;stroke-width:0.05mm;fill:none" d="M181.00856,-160.139664C182.013382,-160.139664,183.069397,-160.139664,184.099945,-160.139664"/>
    <path transform="matrix(1,0,0,-1,-0.987526,-208.260513)" style="stroke:#000000;stroke-width:0.05mm;fill:none" d="M184.307175,-95.329773C184.307175,-110.329659,184.307175,-125.329659,184.307175,-140.329773"/>
    <path transform="matrix(1,0,0,-1,-0.987526,-208.260513)" style="stroke:#000000;stroke-width:0.05mm;fill:none" d="M184.307175,-160.089661C184.307175,-175.089539,184.307175,-190.089539,184.307175,-205.089661"/>
    <path transform="matrix(1,0,0,-1,-0.987526,-208.260513)" style="stroke:#000000;stroke-width:0.05mm;fill:none" d="M7.689098,-160.139664C7.689098,-153.63887,7.689098,-146.806854,7.689098,-140.139664"/>
    <path transform="matrix(1,0,0,-1,-0.987526,-208.260513)" style="stroke:#000000;stroke-width:0.05mm;fill:none" d="M7.689098,-140.139664C6.684277,-140.139664,5.628262,-140.139664,4.597717,-140.139664"/>
    <path transform="matrix(1,0,0,-1,-0.987526,-208.260513)" style="stroke:#000000;stroke-width:0.05mm;fill:none" d="M7.689098,-160.139664C6.684277,-160.139664,5.628262,-160.139664,4.597717,-160.139664"/>
    <path transform="matrix(1,0,0,-1,-0.987526,-208.260513)" style="stroke:#000000;stroke-width:0.05mm;fill:none" d="M4.390488,-95.329773C4.390488,-110.329659,4.390488,-125.329659,4.390488,-140.329773"/>
    <path transform="matrix(1,0,0,-1,-0.987526,-208.260513)" style="stroke:#000000;stroke-width:0.05mm;fill:none" d="M4.390488,-160.089661C4.390488,-175.089539,4.390488,-190.089539,4.390488,-205.089661"/>
    <path transform="matrix(1,0,0,-1,-0.987526,-208.260513)" style="stroke:#f0b98d;stroke-width:0.05mm;fill:none" d="M4.391004,-96.330002L4.391004,-95.330002"/>
    <path transform="matrix(1,0,0,-1,-0.987526,-208.260513)" style="stroke:#f0b98d;stroke-width:0.05mm;fill:none" d="M4.391004,-96.330002L4.391004,-95.330002"/>
    <path transform="matrix(1,0,0,-1,-0.987526,-208.260513)" style="stroke:#000000;stroke-width:0.05mm;fill:none" d="M4.390495,-95.329773C31.033876,-95.329773,57.676994,-95.329773,84.319847,-95.329773"/>
    <path transform="matrix(1,0,0,-1,-0.987526,-208.260513)" style="stroke:#000000;stroke-width:0.05mm;fill:none" d="M104.386353,-95.681747C104.386353,-95.681747z"/>
    <path transform="matrix(1,0,0,-1,-0.987526,-208.260513)" style="stroke:#000000;stroke-width:0.05mm;fill:none" d="M84.319847,-95.329773C84.319847,-96.426514,84.319847,-97.523514,84.319847,-98.620781"/>
    <path transform="matrix(1,0,0,-1,-0.987526,-208.260513)" style="stroke:#000000;stroke-width:0.05mm;fill:none" d="M104.386353,-95.681747C104.386353,-96.661163,104.386353,-97.640839,104.386353,-98.620781"/>
    <path transform="matrix(1,0,0,-1,-0.987526,-208.260513)" style="stroke:#000000;stroke-width:0.05mm;fill:none" d="M84.319847,-98.620781C91.008949,-98.620781,97.697784,-98.620781,104.386353,-98.620781"/>
    <path transform="matrix(1,0,0,-1,-0.987526,-208.260513)" style="stroke:#000000;stroke-width:0.05mm;fill:none" d="M104.386353,-95.681747C131.029755,-95.681747,157.672882,-95.681747,184.31575,-95.681747"/>
</svg>
