<?xml version="1.0" encoding="UTF-8"?>
<svg xmlns="http://www.w3.org/2000/svg" width="283.210mm" height="191.203mm" viewBox="3.809998 -193.743423 283.209991 191.203430">
    <path transform="matrix(1,0,0,-1,0,0)" style="stroke:#00e000;stroke-width:0.05mm;fill:none" d="M3.809998,193.743423L133.120132,193.621613L133.120132,190.62149L158.520126,190.62149L158.520126,193.621613L287.019989,193.743423"/>
    <path transform="translate(0,-196.404999)" style="stroke:#00e000;stroke-width:0.05mm;fill:none" d="M3.809998,193.743423L133.120132,193.621613L133.120132,190.62149L158.520126,190.62149L158.520126,193.621613L287.019989,193.743423"/>
    <path transform="matrix(-1,0,0,-1,290.877991,0)" style="stroke:#00e000;stroke-width:0.05mm;fill:none" d="M287.019989,193.743423L287.019989,110.841713L284.019867,110.841713L284.019867,85.441704L287.019989,85.441704L287.019989,2.539993"/>
    <path transform="matrix(1,0,0,-1,0,0)" style="stroke:#00e000;stroke-width:0.05mm;fill:none" d="M287.019989,193.743423L287.019989,110.841713L284.019867,110.841713L284.019867,85.441704L287.019989,85.441704L287.019989,2.539993"/>
    <circle transform="matrix(1,0,0,-1,276.859985,-172.720001)" style="stroke:#00e000;stroke-width:0.05mm;fill:none" r="1.498604" cx="0" cy="0"/>
    <circle transform="matrix(1,0,0,-1,15.2402,-22.860001)" style="stroke:#00e000;stroke-width:0.05mm;fill:none" r="1.498604" cx="0" cy="0"/>
    <circle transform="matrix(1,0,0,-1,15.2402,-172.720001)" style="stroke:#00e000;stroke-width:0.05mm;fill:none" r="1.498604" cx="0" cy="0"/>
    <circle transform="matrix(1,0,0,-1,276.859985,-22.860001)" style="stroke:#00e000;stroke-width:0.05mm;fill:none" r="1.498604" cx="0" cy="0"/>
    <circle transform="matrix(1,0,0,-1,144.779999,-83.820099)" style="stroke:#00e000;stroke-width:0.05mm;fill:none" r="1.498604" cx="0" cy="0"/>
</svg>
