<?xml version="1.0" encoding="UTF-8"?>
<svg xmlns="http://www.w3.org/2000/svg" width="283.210mm" height="191.203mm" viewBox="3.809998 -193.743423 283.209991 191.203430">
    <circle transform="matrix(1,0,0,-1,137.160004,-22.860201)" style="stroke:#ff8000;stroke-width:0.05mm;fill:none" r="1.498604" cx="0" cy="0"/>
    <circle transform="matrix(1,0,0,-1,101.599998,-22.860201)" style="stroke:#ff8000;stroke-width:0.05mm;fill:none" r="1.498604" cx="0" cy="0"/>
    <circle transform="matrix(1,0,0,-1,154.940002,-17.780199)" style="stroke:#ff8000;stroke-width:0.05mm;fill:none" r="1.498604" cx="0" cy="0"/>
    <circle transform="matrix(1,0,0,-1,261.619995,-15.2402)" style="stroke:#ff8000;stroke-width:0.05mm;fill:none" r="1.498604" cx="0" cy="0"/>
    <circle transform="matrix(1,0,0,-1,30.48,-22.860201)" style="stroke:#ff8000;stroke-width:0.05mm;fill:none" r="1.498604" cx="0" cy="0"/>
    <circle transform="matrix(1,0,0,-1,190.5,-15.2402)" style="stroke:#ff8000;stroke-width:0.05mm;fill:none" r="1.498604" cx="0" cy="0"/>
    <circle transform="matrix(1,0,0,-1,226.059998,-15.2402)" style="stroke:#ff8000;stroke-width:0.05mm;fill:none" r="1.498604" cx="0" cy="0"/>
    <circle transform="matrix(1,0,0,-1,66.040001,-22.860201)" style="stroke:#ff8000;stroke-width:0.05mm;fill:none" r="1.498604" cx="0" cy="0"/>
    <circle transform="matrix(1,0,0,-1,129.539993,-45.7202)" style="stroke:#ff8000;stroke-width:0.05mm;fill:none" r="1.498604" cx="0" cy="0"/>
    <circle transform="matrix(1,0,0,-1,93.980003,-45.7202)" style="stroke:#ff8000;stroke-width:0.05mm;fill:none" r="1.498604" cx="0" cy="0"/>
    <circle transform="matrix(1,0,0,-1,165.100006,-45.7202)" style="stroke:#ff8000;stroke-width:0.05mm;fill:none" r="1.498604" cx="0" cy="0"/>
    <circle transform="matrix(1,0,0,-1,251.460007,-45.7202)" style="stroke:#ff8000;stroke-width:0.05mm;fill:none" r="1.498604" cx="0" cy="0"/>
    <circle transform="matrix(1,0,0,-1,20.32,-45.7202)" style="stroke:#ff8000;stroke-width:0.05mm;fill:none" r="1.498604" cx="0" cy="0"/>
    <circle transform="matrix(1,0,0,-1,200.660004,-45.7202)" style="stroke:#ff8000;stroke-width:0.05mm;fill:none" r="1.498604" cx="0" cy="0"/>
    <circle transform="matrix(1,0,0,-1,236.220001,-45.7202)" style="stroke:#ff8000;stroke-width:0.05mm;fill:none" r="1.498604" cx="0" cy="0"/>
    <circle transform="matrix(1,0,0,-1,58.419998,-45.7202)" style="stroke:#ff8000;stroke-width:0.05mm;fill:none" r="1.498604" cx="0" cy="0"/>
    <circle transform="matrix(1,0,0,-1,129.539993,-81.280197)" style="stroke:#ff8000;stroke-width:0.05mm;fill:none" r="1.498604" cx="0" cy="0"/>
    <circle transform="matrix(1,0,0,-1,93.980003,-81.280197)" style="stroke:#ff8000;stroke-width:0.05mm;fill:none" r="1.498604" cx="0" cy="0"/>
    <circle transform="matrix(1,0,0,-1,162.559998,-76.200203)" style="stroke:#ff8000;stroke-width:0.05mm;fill:none" r="1.498604" cx="0" cy="0"/>
    <circle transform="matrix(1,0,0,-1,269.23999,-76.200203)" style="stroke:#ff8000;stroke-width:0.05mm;fill:none" r="1.498604" cx="0" cy="0"/>
    <circle transform="matrix(1,0,0,-1,20.32,-81.280197)" style="stroke:#ff8000;stroke-width:0.05mm;fill:none" r="1.498604" cx="0" cy="0"/>
    <circle transform="matrix(1,0,0,-1,198.119995,-76.200203)" style="stroke:#ff8000;stroke-width:0.05mm;fill:none" r="1.498604" cx="0" cy="0"/>
    <circle transform="matrix(1,0,0,-1,233.679993,-76.200203)" style="stroke:#ff8000;stroke-width:0.05mm;fill:none" r="1.498604" cx="0" cy="0"/>
    <circle transform="matrix(1,0,0,-1,58.419998,-81.280197)" style="stroke:#ff8000;stroke-width:0.05mm;fill:none" r="1.498604" cx="0" cy="0"/>
    <circle transform="matrix(1,0,0,-1,129.539993,-116.839996)" style="stroke:#ff8000;stroke-width:0.05mm;fill:none" r="1.498604" cx="0" cy="0"/>
    <circle transform="matrix(1,0,0,-1,93.980003,-116.839996)" style="stroke:#ff8000;stroke-width:0.05mm;fill:none" r="1.498604" cx="0" cy="0"/>
    <circle transform="matrix(1,0,0,-1,162.559998,-111.760002)" style="stroke:#ff8000;stroke-width:0.05mm;fill:none" r="1.498604" cx="0" cy="0"/>
    <circle transform="matrix(1,0,0,-1,269.23999,-111.760002)" style="stroke:#ff8000;stroke-width:0.05mm;fill:none" r="1.498604" cx="0" cy="0"/>
    <circle transform="matrix(1,0,0,-1,20.32,-116.839996)" style="stroke:#ff8000;stroke-width:0.05mm;fill:none" r="1.498604" cx="0" cy="0"/>
    <circle transform="matrix(1,0,0,-1,198.119995,-111.760002)" style="stroke:#ff8000;stroke-width:0.05mm;fill:none" r="1.498604" cx="0" cy="0"/>
    <circle transform="matrix(1,0,0,-1,233.679993,-111.760002)" style="stroke:#ff8000;stroke-width:0.05mm;fill:none" r="1.498604" cx="0" cy="0"/>
    <circle transform="matrix(1,0,0,-1,58.419998,-116.839996)" style="stroke:#ff8000;stroke-width:0.05mm;fill:none" r="1.498604" cx="0" cy="0"/>
    <circle transform="matrix(1,0,0,-1,119.379997,-149.860001)" style="stroke:#ff8000;stroke-width:0.05mm;fill:none" r="1.498604" cx="0" cy="0"/>
    <circle transform="matrix(1,0,0,-1,83.82,-149.860001)" style="stroke:#ff8000;stroke-width:0.05mm;fill:none" r="1.498604" cx="0" cy="0"/>
    <circle transform="matrix(1,0,0,-1,172.720001,-142.240005)" style="stroke:#ff8000;stroke-width:0.05mm;fill:none" r="1.498604" cx="0" cy="0"/>
    <circle transform="matrix(1,0,0,-1,269.23999,-144.779999)" style="stroke:#ff8000;stroke-width:0.05mm;fill:none" r="1.498604" cx="0" cy="0"/>
    <circle transform="matrix(1,0,0,-1,20.32,-152.399994)" style="stroke:#ff8000;stroke-width:0.05mm;fill:none" r="1.498604" cx="0" cy="0"/>
    <circle transform="matrix(1,0,0,-1,208.279999,-142.240005)" style="stroke:#ff8000;stroke-width:0.05mm;fill:none" r="1.498604" cx="0" cy="0"/>
    <circle transform="matrix(1,0,0,-1,243.839996,-142.240005)" style="stroke:#ff8000;stroke-width:0.05mm;fill:none" r="1.498604" cx="0" cy="0"/>
    <circle transform="matrix(1,0,0,-1,48.259998,-149.860001)" style="stroke:#ff8000;stroke-width:0.05mm;fill:none" r="1.498604" cx="0" cy="0"/>
    <path transform="matrix(1,0,0,-1,0,0)" style="stroke:#ff8000;stroke-width:0.05mm;fill:none" d="M197.26268,193.743423L197.26268,193.743423"/>
    <path transform="matrix(1,0,0,-1,0,0)" style="stroke:#ff8000;stroke-width:0.05mm;fill:none" d="M3.809998,193.743423L133.120132,193.621613L133.120132,190.62149L158.520126,190.62149L158.520126,193.621613L287.019989,193.743423"/>
    <path transform="translate(0,-196.404999)" style="stroke:#ff8000;stroke-width:0.05mm;fill:none" d="M3.809998,193.743423L133.120132,193.621613L133.120132,190.62149L158.520126,190.62149L158.520126,193.621613L287.019989,193.743423"/>
    <path transform="matrix(-1,0,0,-1,290.877991,0)" style="stroke:#ff8000;stroke-width:0.05mm;fill:none" d="M287.019989,193.743423L287.019989,110.841713L284.019867,110.841713L284.019867,85.441704L287.019989,85.441704L287.019989,2.539993"/>
    <path transform="matrix(1,0,0,-1,0,0)" style="stroke:#ff8000;stroke-width:0.05mm;fill:none" d="M287.019989,193.743423L287.019989,110.841713L284.019867,110.841713L284.019867,85.441704L287.019989,85.441704L287.019989,2.539993"/>
    <circle transform="matrix(1,0,0,-1,15.2402,-182.880005)" style="stroke:#ff8000;stroke-width:0.05mm;fill:none" r="1.498604" cx="0" cy="0"/>
    <circle transform="matrix(1,0,0,-1,276.859985,-182.880005)" style="stroke:#ff8000;stroke-width:0.05mm;fill:none" r="1.498604" cx="0" cy="0"/>
    <circle transform="matrix(1,0,0,-1,15.2402,-12.7)" style="stroke:#ff8000;stroke-width:0.05mm;fill:none" r="1.498604" cx="0" cy="0"/>
    <circle transform="matrix(1,0,0,-1,276.859985,-12.7)" style="stroke:#ff8000;stroke-width:0.05mm;fill:none" r="1.498604" cx="0" cy="0"/>
    <circle transform="matrix(1,0,0,-1,15.2402,-172.720001)" style="stroke:#ff8000;stroke-width:0.05mm;fill:none" r="1.498604" cx="0" cy="0"/>
    <circle transform="matrix(1,0,0,-1,276.859985,-172.720001)" style="stroke:#ff8000;stroke-width:0.05mm;fill:none" r="1.498604" cx="0" cy="0"/>
    <circle transform="matrix(1,0,0,-1,276.859985,-172.720001)" style="stroke:#ff8000;stroke-width:0.05mm;fill:none" r="1.498604" cx="0" cy="0"/>
    <circle transform="matrix(1,0,0,-1,276.859985,-22.860001)" style="stroke:#ff8000;stroke-width:0.05mm;fill:none" r="1.498604" cx="0" cy="0"/>
    <circle transform="matrix(1,0,0,-1,15.2402,-22.860001)" style="stroke:#ff8000;stroke-width:0.05mm;fill:none" r="1.498604" cx="0" cy="0"/>
    <circle transform="matrix(1,0,0,-1,20.32,-35.5602)" style="stroke:#ff8000;stroke-width:0.05mm;fill:none" r="1.498604" cx="0" cy="0"/>
    <circle transform="matrix(1,0,0,-1,76.199997,-35.5602)" style="stroke:#ff8000;stroke-width:0.05mm;fill:none" r="1.498604" cx="0" cy="0"/>
    <circle transform="matrix(1,0,0,-1,111.760002,-35.5602)" style="stroke:#ff8000;stroke-width:0.05mm;fill:none" r="1.498604" cx="0" cy="0"/>
    <circle transform="matrix(1,0,0,-1,162.559998,-35.5602)" style="stroke:#ff8000;stroke-width:0.05mm;fill:none" r="1.498604" cx="0" cy="0"/>
    <circle transform="matrix(1,0,0,-1,269.23999,-35.5602)" style="stroke:#ff8000;stroke-width:0.05mm;fill:none" r="1.498604" cx="0" cy="0"/>
    <circle transform="matrix(1,0,0,-1,218.440002,-35.5602)" style="stroke:#ff8000;stroke-width:0.05mm;fill:none" r="1.498604" cx="0" cy="0"/>
    <circle transform="matrix(1,0,0,-1,27.940001,-177.800003)" style="stroke:#ff8000;stroke-width:0.05mm;fill:none" r="1.498604" cx="0" cy="0"/>
    <circle transform="matrix(1,0,0,-1,27.940001,-165.100006)" style="stroke:#ff8000;stroke-width:0.05mm;fill:none" r="1.498604" cx="0" cy="0"/>
    <circle transform="matrix(1,0,0,-1,60.959999,-177.800003)" style="stroke:#ff8000;stroke-width:0.05mm;fill:none" r="1.498604" cx="0" cy="0"/>
    <circle transform="matrix(1,0,0,-1,60.959999,-165.100006)" style="stroke:#ff8000;stroke-width:0.05mm;fill:none" r="1.498604" cx="0" cy="0"/>
    <circle transform="matrix(1,0,0,-1,99.059998,-177.800003)" style="stroke:#ff8000;stroke-width:0.05mm;fill:none" r="1.498604" cx="0" cy="0"/>
    <circle transform="matrix(1,0,0,-1,99.059998,-165.100006)" style="stroke:#ff8000;stroke-width:0.05mm;fill:none" r="1.498604" cx="0" cy="0"/>
    <circle transform="matrix(1,0,0,-1,137.160004,-177.800003)" style="stroke:#ff8000;stroke-width:0.05mm;fill:none" r="1.498604" cx="0" cy="0"/>
    <circle transform="matrix(1,0,0,-1,137.160004,-165.100006)" style="stroke:#ff8000;stroke-width:0.05mm;fill:none" r="1.498604" cx="0" cy="0"/>
    <circle transform="matrix(1,0,0,-1,170.179993,-177.800003)" style="stroke:#ff8000;stroke-width:0.05mm;fill:none" r="1.498604" cx="0" cy="0"/>
    <circle transform="matrix(1,0,0,-1,170.179993,-165.100006)" style="stroke:#ff8000;stroke-width:0.05mm;fill:none" r="1.498604" cx="0" cy="0"/>
    <circle transform="matrix(1,0,0,-1,144.779999,-83.820099)" style="stroke:#ff8000;stroke-width:0.05mm;fill:none" r="1.498604" cx="0" cy="0"/>
    <rect transform="matrix(1,0,0,-1,239.839996,-152.272995)" style="stroke:#ff8000;stroke-width:0.05mm;fill:none" x="-25.209692" y="-1.904999" width="50.419384" height="3.809998" rx="1.904999"/>
    <rect transform="matrix(1,0,0,-1,82.550003,-12.446)" style="stroke:#ff8000;stroke-width:0.05mm;fill:none" x="-25.209692" y="-1.904999" width="50.419384" height="3.809998" rx="1.904999"/>
</svg>
