<?xml version="1.0" encoding="UTF-8"?>
<svg xmlns="http://www.w3.org/2000/svg" width="251.737mm" height="178.368mm" viewBox="10.020501 -182.936203 251.737488 178.367615">
    <path transform="matrix(1,0,0,-1,20.3195,-52.022999)" style="stroke:#000000;stroke-width:0.05mm;fill:none" d="M5.149499,8.993203L10.298999,-0L5.149498,-8.993204L-5.149501,-8.993202L-10.298999,0L-5.149497,8.993205L5.149499,8.993203z"/>
    <path transform="matrix(1,-0,0,1,25.179001,-12.8389)" style="stroke:#000000;stroke-width:0.05mm;fill:none" d="M14.143002,8.213403L-0.000001,-16.426807L-14.142998,8.213409L14.143002,8.213403z"/>
    <path transform="matrix(1,0,0,-1,42.020199,-20.995399)" style="stroke:#000000;stroke-width:0.05mm;fill:none" d="M14.143003,8.213404L-0.000001,-16.426809L-14.143,8.21341L14.143003,8.213404z"/>
    <path transform="matrix(1,-0,0,1,58.452999,-12.8389)" style="stroke:#000000;stroke-width:0.05mm;fill:none" d="M14.143002,8.213403L-0.000001,-16.426807L-14.142998,8.213409L14.143002,8.213403z"/>
    <path transform="matrix(1,0,0,-1,75.294197,-20.995399)" style="stroke:#000000;stroke-width:0.05mm;fill:none" d="M14.143003,8.213404L-0.000001,-16.426809L-14.143,8.21341L14.143003,8.213404z"/>
    <path transform="matrix(1,0,0,-1,20.3195,-72.343002)" style="stroke:#000000;stroke-width:0.05mm;fill:none" d="M5.149499,8.993203L10.298999,-0L5.149498,-8.993204L-5.149501,-8.993202L-10.298999,0L-5.149497,8.993205L5.149499,8.993203z"/>
    <path transform="matrix(1,0,0,-1,20.3195,-92.663101)" style="stroke:#000000;stroke-width:0.05mm;fill:none" d="M5.149499,8.993203L10.298999,-0L5.149498,-8.993204L-5.149501,-8.993202L-10.298999,0L-5.149497,8.993205L5.149499,8.993203z"/>
    <path transform="matrix(1,0,0,-1,20.3195,-112.983002)" style="stroke:#000000;stroke-width:0.05mm;fill:none" d="M5.149499,8.993203L10.298999,-0L5.149498,-8.993204L-5.149501,-8.993202L-10.298999,0L-5.149497,8.993205L5.149499,8.993203z"/>
    <path transform="matrix(1,0,0,-1,20.3195,-133.302994)" style="stroke:#000000;stroke-width:0.05mm;fill:none" d="M5.149499,8.993203L10.298999,-0L5.149498,-8.993204L-5.149501,-8.993202L-10.298999,0L-5.149497,8.993205L5.149499,8.993203z"/>
    <path transform="matrix(1,0,0,-1,20.3195,-153.623001)" style="stroke:#000000;stroke-width:0.05mm;fill:none" d="M5.149499,8.993203L10.298999,-0L5.149498,-8.993204L-5.149501,-8.993202L-10.298999,0L-5.149497,8.993205L5.149499,8.993203z"/>
    <path transform="matrix(1,0,0,-1,20.3195,-173.942993)" style="stroke:#000000;stroke-width:0.05mm;fill:none" d="M5.149499,8.993203L10.298999,-0L5.149498,-8.993204L-5.149501,-8.993202L-10.298999,0L-5.149497,8.993205L5.149499,8.993203z"/>
    <path transform="matrix(1,0,0,-1,38.099499,-41.862999)" style="stroke:#000000;stroke-width:0.05mm;fill:none" d="M5.149499,8.993203L10.298999,-0L5.149498,-8.993204L-5.149501,-8.993202L-10.298999,0L-5.149497,8.993205L5.149499,8.993203z"/>
    <path transform="matrix(1,0,0,-1,38.099499,-62.182999)" style="stroke:#000000;stroke-width:0.05mm;fill:none" d="M5.149499,8.993203L10.298999,-0L5.149498,-8.993204L-5.149501,-8.993202L-10.298999,0L-5.149497,8.993205L5.149499,8.993203z"/>
    <path transform="matrix(1,0,0,-1,38.099499,-82.503098)" style="stroke:#000000;stroke-width:0.05mm;fill:none" d="M5.149499,8.993203L10.298999,-0L5.149498,-8.993204L-5.149501,-8.993202L-10.298999,0L-5.149497,8.993205L5.149499,8.993203z"/>
    <path transform="matrix(1,0,0,-1,38.099499,-102.822998)" style="stroke:#000000;stroke-width:0.05mm;fill:none" d="M5.149499,8.993203L10.298999,-0L5.149498,-8.993204L-5.149501,-8.993202L-10.298999,0L-5.149497,8.993205L5.149499,8.993203z"/>
    <path transform="matrix(1,0,0,-1,38.099499,-123.142998)" style="stroke:#000000;stroke-width:0.05mm;fill:none" d="M5.149499,8.993203L10.298999,-0L5.149498,-8.993204L-5.149501,-8.993202L-10.298999,0L-5.149497,8.993205L5.149499,8.993203z"/>
    <path transform="matrix(1,0,0,-1,38.099499,-143.462997)" style="stroke:#000000;stroke-width:0.05mm;fill:none" d="M5.149499,8.993203L10.298999,-0L5.149498,-8.993204L-5.149501,-8.993202L-10.298999,0L-5.149497,8.993205L5.149499,8.993203z"/>
    <path transform="matrix(1,0,0,-1,38.099499,-163.783005)" style="stroke:#000000;stroke-width:0.05mm;fill:none" d="M5.149499,8.993203L10.298999,-0L5.149498,-8.993204L-5.149501,-8.993202L-10.298999,0L-5.149497,8.993205L5.149499,8.993203z"/>
    <path transform="matrix(1,0,0,-1,55.879501,-52.022999)" style="stroke:#000000;stroke-width:0.05mm;fill:none" d="M5.149499,8.993203L10.298999,-0L5.149498,-8.993204L-5.149501,-8.993202L-10.298999,0L-5.149497,8.993205L5.149499,8.993203z"/>
    <path transform="matrix(1,0,0,-1,55.879501,-72.343002)" style="stroke:#000000;stroke-width:0.05mm;fill:none" d="M5.149499,8.993203L10.298999,-0L5.149498,-8.993204L-5.149501,-8.993202L-10.298999,0L-5.149497,8.993205L5.149499,8.993203z"/>
    <path transform="matrix(1,0,0,-1,55.879501,-92.663101)" style="stroke:#000000;stroke-width:0.05mm;fill:none" d="M5.149499,8.993203L10.298999,-0L5.149498,-8.993204L-5.149501,-8.993202L-10.298999,0L-5.149497,8.993205L5.149499,8.993203z"/>
    <path transform="matrix(1,0,0,-1,55.879501,-112.983002)" style="stroke:#000000;stroke-width:0.05mm;fill:none" d="M5.149499,8.993203L10.298999,-0L5.149498,-8.993204L-5.149501,-8.993202L-10.298999,0L-5.149497,8.993205L5.149499,8.993203z"/>
    <path transform="matrix(1,0,0,-1,55.879501,-133.302994)" style="stroke:#000000;stroke-width:0.05mm;fill:none" d="M5.149499,8.993203L10.298999,-0L5.149498,-8.993204L-5.149501,-8.993202L-10.298999,0L-5.149497,8.993205L5.149499,8.993203z"/>
    <path transform="matrix(1,0,0,-1,55.879501,-153.623001)" style="stroke:#000000;stroke-width:0.05mm;fill:none" d="M5.149499,8.993203L10.298999,-0L5.149498,-8.993204L-5.149501,-8.993202L-10.298999,0L-5.149497,8.993205L5.149499,8.993203z"/>
    <path transform="matrix(1,0,0,-1,55.879501,-173.942993)" style="stroke:#000000;stroke-width:0.05mm;fill:none" d="M5.149499,8.993203L10.298999,-0L5.149498,-8.993204L-5.149501,-8.993202L-10.298999,0L-5.149497,8.993205L5.149499,8.993203z"/>
    <path transform="matrix(1,0,0,-1,73.6595,-41.862999)" style="stroke:#000000;stroke-width:0.05mm;fill:none" d="M5.149499,8.993203L10.298999,-0L5.149498,-8.993204L-5.149501,-8.993202L-10.298999,0L-5.149497,8.993205L5.149499,8.993203z"/>
    <path transform="matrix(1,0,0,-1,73.6595,-62.182999)" style="stroke:#000000;stroke-width:0.05mm;fill:none" d="M5.149499,8.993203L10.298999,-0L5.149498,-8.993204L-5.149501,-8.993202L-10.298999,0L-5.149497,8.993205L5.149499,8.993203z"/>
    <path transform="matrix(1,0,0,-1,73.6595,-82.503098)" style="stroke:#000000;stroke-width:0.05mm;fill:none" d="M5.149499,8.993203L10.298999,-0L5.149498,-8.993204L-5.149501,-8.993202L-10.298999,0L-5.149497,8.993205L5.149499,8.993203z"/>
    <path transform="matrix(1,0,0,-1,73.6595,-102.822998)" style="stroke:#000000;stroke-width:0.05mm;fill:none" d="M5.149499,8.993203L10.298999,-0L5.149498,-8.993204L-5.149501,-8.993202L-10.298999,0L-5.149497,8.993205L5.149499,8.993203z"/>
    <path transform="matrix(1,0,0,-1,73.6595,-123.142998)" style="stroke:#000000;stroke-width:0.05mm;fill:none" d="M5.149499,8.993203L10.298999,-0L5.149498,-8.993204L-5.149501,-8.993202L-10.298999,0L-5.149497,8.993205L5.149499,8.993203z"/>
    <path transform="matrix(1,0,0,-1,73.6595,-143.462997)" style="stroke:#000000;stroke-width:0.05mm;fill:none" d="M5.149499,8.993203L10.298999,-0L5.149498,-8.993204L-5.149501,-8.993202L-10.298999,0L-5.149497,8.993205L5.149499,8.993203z"/>
    <path transform="matrix(1,0,0,-1,73.6595,-163.783005)" style="stroke:#000000;stroke-width:0.05mm;fill:none" d="M5.149499,8.993203L10.298999,-0L5.149498,-8.993204L-5.149501,-8.993202L-10.298999,0L-5.149497,8.993205L5.149499,8.993203z"/>
    <path transform="matrix(1,0,0,-1,91.439499,-52.022999)" style="stroke:#000000;stroke-width:0.05mm;fill:none" d="M5.149499,8.993203L10.298999,-0L5.149498,-8.993204L-5.149501,-8.993202L-10.298999,0L-5.149497,8.993205L5.149499,8.993203z"/>
    <path transform="matrix(1,0,0,-1,91.439499,-72.343002)" style="stroke:#000000;stroke-width:0.05mm;fill:none" d="M5.149499,8.993203L10.298999,-0L5.149498,-8.993204L-5.149501,-8.993202L-10.298999,0L-5.149497,8.993205L5.149499,8.993203z"/>
    <path transform="matrix(1,0,0,-1,91.439499,-92.663101)" style="stroke:#000000;stroke-width:0.05mm;fill:none" d="M5.149499,8.993203L10.298999,-0L5.149498,-8.993204L-5.149501,-8.993202L-10.298999,0L-5.149497,8.993205L5.149499,8.993203z"/>
    <path transform="matrix(1,0,0,-1,91.439499,-112.983002)" style="stroke:#000000;stroke-width:0.05mm;fill:none" d="M5.149499,8.993203L10.298999,-0L5.149498,-8.993204L-5.149501,-8.993202L-10.298999,0L-5.149497,8.993205L5.149499,8.993203z"/>
    <path transform="matrix(1,0,0,-1,91.439499,-133.302994)" style="stroke:#000000;stroke-width:0.05mm;fill:none" d="M5.149499,8.993203L10.298999,-0L5.149498,-8.993204L-5.149501,-8.993202L-10.298999,0L-5.149497,8.993205L5.149499,8.993203z"/>
    <path transform="matrix(1,0,0,-1,91.439499,-153.623001)" style="stroke:#000000;stroke-width:0.05mm;fill:none" d="M5.149499,8.993203L10.298999,-0L5.149498,-8.993204L-5.149501,-8.993202L-10.298999,0L-5.149497,8.993205L5.149499,8.993203z"/>
    <path transform="matrix(1,0,0,-1,91.439499,-173.942993)" style="stroke:#000000;stroke-width:0.05mm;fill:none" d="M5.149499,8.993203L10.298999,-0L5.149498,-8.993204L-5.149501,-8.993202L-10.298999,0L-5.149497,8.993205L5.149499,8.993203z"/>
    <path transform="matrix(1,0,0,-1,109.220001,-41.862999)" style="stroke:#000000;stroke-width:0.05mm;fill:none" d="M5.149499,8.993203L10.298999,-0L5.149498,-8.993204L-5.149501,-8.993202L-10.298999,0L-5.149497,8.993205L5.149499,8.993203z"/>
    <path transform="matrix(1,0,0,-1,109.220001,-62.182999)" style="stroke:#000000;stroke-width:0.05mm;fill:none" d="M5.149499,8.993203L10.298999,-0L5.149498,-8.993204L-5.149501,-8.993202L-10.298999,0L-5.149497,8.993205L5.149499,8.993203z"/>
    <path transform="matrix(1,0,0,-1,109.220001,-82.503098)" style="stroke:#000000;stroke-width:0.05mm;fill:none" d="M5.149499,8.993203L10.298999,-0L5.149498,-8.993204L-5.149501,-8.993202L-10.298999,0L-5.149497,8.993205L5.149499,8.993203z"/>
    <path transform="matrix(1,0,0,-1,109.220001,-102.822998)" style="stroke:#000000;stroke-width:0.05mm;fill:none" d="M5.149499,8.993203L10.298999,-0L5.149498,-8.993204L-5.149501,-8.993202L-10.298999,0L-5.149497,8.993205L5.149499,8.993203z"/>
    <path transform="matrix(1,0,0,-1,109.220001,-123.142998)" style="stroke:#000000;stroke-width:0.05mm;fill:none" d="M5.149499,8.993203L10.298999,-0L5.149498,-8.993204L-5.149501,-8.993202L-10.298999,0L-5.149497,8.993205L5.149499,8.993203z"/>
    <path transform="matrix(1,0,0,-1,109.220001,-143.462997)" style="stroke:#000000;stroke-width:0.05mm;fill:none" d="M5.149499,8.993203L10.298999,-0L5.149498,-8.993204L-5.149501,-8.993202L-10.298999,0L-5.149497,8.993205L5.149499,8.993203z"/>
    <path transform="matrix(1,0,0,-1,109.220001,-163.783005)" style="stroke:#000000;stroke-width:0.05mm;fill:none" d="M5.149499,8.993203L10.298999,-0L5.149498,-8.993204L-5.149501,-8.993202L-10.298999,0L-5.149497,8.993205L5.149499,8.993203z"/>
    <path transform="matrix(1,0,0,-1,127,-52.022999)" style="stroke:#000000;stroke-width:0.05mm;fill:none" d="M5.149499,8.993203L10.298999,-0L5.149498,-8.993204L-5.149501,-8.993202L-10.298999,0L-5.149497,8.993205L5.149499,8.993203z"/>
    <path transform="matrix(1,0,0,-1,127,-72.343002)" style="stroke:#000000;stroke-width:0.05mm;fill:none" d="M5.149499,8.993203L10.298999,-0L5.149498,-8.993204L-5.149501,-8.993202L-10.298999,0L-5.149497,8.993205L5.149499,8.993203z"/>
    <path transform="matrix(1,0,0,-1,127,-92.663101)" style="stroke:#000000;stroke-width:0.05mm;fill:none" d="M5.149499,8.993203L10.298999,-0L5.149498,-8.993204L-5.149501,-8.993202L-10.298999,0L-5.149497,8.993205L5.149499,8.993203z"/>
    <path transform="matrix(1,0,0,-1,127,-112.983002)" style="stroke:#000000;stroke-width:0.05mm;fill:none" d="M5.149499,8.993203L10.298999,-0L5.149498,-8.993204L-5.149501,-8.993202L-10.298999,0L-5.149497,8.993205L5.149499,8.993203z"/>
    <path transform="matrix(1,0,0,-1,127,-133.302994)" style="stroke:#000000;stroke-width:0.05mm;fill:none" d="M5.149499,8.993203L10.298999,-0L5.149498,-8.993204L-5.149501,-8.993202L-10.298999,0L-5.149497,8.993205L5.149499,8.993203z"/>
    <path transform="matrix(1,0,0,-1,127,-153.623001)" style="stroke:#000000;stroke-width:0.05mm;fill:none" d="M5.149499,8.993203L10.298999,-0L5.149498,-8.993204L-5.149501,-8.993202L-10.298999,0L-5.149497,8.993205L5.149499,8.993203z"/>
    <path transform="matrix(1,0,0,-1,127,-173.942993)" style="stroke:#000000;stroke-width:0.05mm;fill:none" d="M5.149499,8.993203L10.298999,-0L5.149498,-8.993204L-5.149501,-8.993202L-10.298999,0L-5.149497,8.993205L5.149499,8.993203z"/>
    <path transform="matrix(1,0,0,-1,144.779007,-41.862999)" style="stroke:#000000;stroke-width:0.05mm;fill:none" d="M5.149499,8.993203L10.298999,-0L5.149498,-8.993204L-5.149501,-8.993202L-10.298999,0L-5.149497,8.993205L5.149499,8.993203z"/>
    <path transform="matrix(1,0,0,-1,144.779007,-62.182999)" style="stroke:#000000;stroke-width:0.05mm;fill:none" d="M5.149499,8.993203L10.298999,-0L5.149498,-8.993204L-5.149501,-8.993202L-10.298999,0L-5.149497,8.993205L5.149499,8.993203z"/>
    <path transform="matrix(1,0,0,-1,144.779007,-82.503098)" style="stroke:#000000;stroke-width:0.05mm;fill:none" d="M5.149499,8.993203L10.298999,-0L5.149498,-8.993204L-5.149501,-8.993202L-10.298999,0L-5.149497,8.993205L5.149499,8.993203z"/>
    <path transform="matrix(1,0,0,-1,144.779007,-102.822998)" style="stroke:#000000;stroke-width:0.05mm;fill:none" d="M5.149499,8.993203L10.298999,-0L5.149498,-8.993204L-5.149501,-8.993202L-10.298999,0L-5.149497,8.993205L5.149499,8.993203z"/>
    <path transform="matrix(1,0,0,-1,144.779007,-123.142998)" style="stroke:#000000;stroke-width:0.05mm;fill:none" d="M5.149499,8.993203L10.298999,-0L5.149498,-8.993204L-5.149501,-8.993202L-10.298999,0L-5.149497,8.993205L5.149499,8.993203z"/>
    <path transform="matrix(1,0,0,-1,144.779007,-143.462997)" style="stroke:#000000;stroke-width:0.05mm;fill:none" d="M5.149499,8.993203L10.298999,-0L5.149498,-8.993204L-5.149501,-8.993202L-10.298999,0L-5.149497,8.993205L5.149499,8.993203z"/>
    <path transform="matrix(1,0,0,-1,144.779007,-163.783005)" style="stroke:#000000;stroke-width:0.05mm;fill:none" d="M5.149499,8.993203L10.298999,-0L5.149498,-8.993204L-5.149501,-8.993202L-10.298999,0L-5.149497,8.993205L5.149499,8.993203z"/>
    <path transform="matrix(1,0,0,-1,162.559006,-52.022999)" style="stroke:#000000;stroke-width:0.05mm;fill:none" d="M5.149499,8.993203L10.298999,-0L5.149498,-8.993204L-5.149501,-8.993202L-10.298999,0L-5.149497,8.993205L5.149499,8.993203z"/>
    <path transform="matrix(1,0,0,-1,162.559006,-72.343002)" style="stroke:#000000;stroke-width:0.05mm;fill:none" d="M5.149499,8.993203L10.298999,-0L5.149498,-8.993204L-5.149501,-8.993202L-10.298999,0L-5.149497,8.993205L5.149499,8.993203z"/>
    <path transform="matrix(1,0,0,-1,162.559006,-92.663101)" style="stroke:#000000;stroke-width:0.05mm;fill:none" d="M5.149499,8.993203L10.298999,-0L5.149498,-8.993204L-5.149501,-8.993202L-10.298999,0L-5.149497,8.993205L5.149499,8.993203z"/>
    <path transform="matrix(1,0,0,-1,162.559006,-112.983002)" style="stroke:#000000;stroke-width:0.05mm;fill:none" d="M5.149499,8.993203L10.298999,-0L5.149498,-8.993204L-5.149501,-8.993202L-10.298999,0L-5.149497,8.993205L5.149499,8.993203z"/>
    <path transform="matrix(1,0,0,-1,162.559006,-133.302994)" style="stroke:#000000;stroke-width:0.05mm;fill:none" d="M5.149499,8.993203L10.298999,-0L5.149498,-8.993204L-5.149501,-8.993202L-10.298999,0L-5.149497,8.993205L5.149499,8.993203z"/>
    <path transform="matrix(1,0,0,-1,162.559006,-153.623001)" style="stroke:#000000;stroke-width:0.05mm;fill:none" d="M5.149499,8.993203L10.298999,-0L5.149498,-8.993204L-5.149501,-8.993202L-10.298999,0L-5.149497,8.993205L5.149499,8.993203z"/>
    <path transform="matrix(1,0,0,-1,162.559006,-173.942993)" style="stroke:#000000;stroke-width:0.05mm;fill:none" d="M5.149499,8.993203L10.298999,-0L5.149498,-8.993204L-5.149501,-8.993202L-10.298999,0L-5.149497,8.993205L5.149499,8.993203z"/>
    <path transform="matrix(1,0,0,-1,180.339005,-41.862999)" style="stroke:#000000;stroke-width:0.05mm;fill:none" d="M5.149499,8.993203L10.298999,-0L5.149498,-8.993204L-5.149501,-8.993202L-10.298999,0L-5.149497,8.993205L5.149499,8.993203z"/>
    <path transform="matrix(1,0,0,-1,180.339005,-62.182999)" style="stroke:#000000;stroke-width:0.05mm;fill:none" d="M5.149499,8.993203L10.298999,-0L5.149498,-8.993204L-5.149501,-8.993202L-10.298999,0L-5.149497,8.993205L5.149499,8.993203z"/>
    <path transform="matrix(1,0,0,-1,180.339005,-82.503098)" style="stroke:#000000;stroke-width:0.05mm;fill:none" d="M5.149499,8.993203L10.298999,-0L5.149498,-8.993204L-5.149501,-8.993202L-10.298999,0L-5.149497,8.993205L5.149499,8.993203z"/>
    <path transform="matrix(1,0,0,-1,180.339005,-102.822998)" style="stroke:#000000;stroke-width:0.05mm;fill:none" d="M5.149499,8.993203L10.298999,-0L5.149498,-8.993204L-5.149501,-8.993202L-10.298999,0L-5.149497,8.993205L5.149499,8.993203z"/>
    <path transform="matrix(1,0,0,-1,180.339005,-123.142998)" style="stroke:#000000;stroke-width:0.05mm;fill:none" d="M5.149499,8.993203L10.298999,-0L5.149498,-8.993204L-5.149501,-8.993202L-10.298999,0L-5.149497,8.993205L5.149499,8.993203z"/>
    <path transform="matrix(1,0,0,-1,180.339005,-143.462997)" style="stroke:#000000;stroke-width:0.05mm;fill:none" d="M5.149499,8.993203L10.298999,-0L5.149498,-8.993204L-5.149501,-8.993202L-10.298999,0L-5.149497,8.993205L5.149499,8.993203z"/>
    <path transform="matrix(1,0,0,-1,180.339005,-163.783005)" style="stroke:#000000;stroke-width:0.05mm;fill:none" d="M5.149499,8.993203L10.298999,-0L5.149498,-8.993204L-5.149501,-8.993202L-10.298999,0L-5.149497,8.993205L5.149499,8.993203z"/>
    <path transform="matrix(1,0,0,-1,198.119003,-52.022999)" style="stroke:#000000;stroke-width:0.05mm;fill:none" d="M5.149499,8.993203L10.298999,-0L5.149498,-8.993204L-5.149501,-8.993202L-10.298999,0L-5.149497,8.993205L5.149499,8.993203z"/>
    <path transform="matrix(1,0,0,-1,198.119003,-72.343002)" style="stroke:#000000;stroke-width:0.05mm;fill:none" d="M5.149499,8.993203L10.298999,-0L5.149498,-8.993204L-5.149501,-8.993202L-10.298999,0L-5.149497,8.993205L5.149499,8.993203z"/>
    <path transform="matrix(1,0,0,-1,198.119003,-92.663101)" style="stroke:#000000;stroke-width:0.05mm;fill:none" d="M5.149499,8.993203L10.298999,-0L5.149498,-8.993204L-5.149501,-8.993202L-10.298999,0L-5.149497,8.993205L5.149499,8.993203z"/>
    <path transform="matrix(1,0,0,-1,198.119003,-112.983002)" style="stroke:#000000;stroke-width:0.05mm;fill:none" d="M5.149499,8.993203L10.298999,-0L5.149498,-8.993204L-5.149501,-8.993202L-10.298999,0L-5.149497,8.993205L5.149499,8.993203z"/>
    <path transform="matrix(1,0,0,-1,198.119003,-133.302994)" style="stroke:#000000;stroke-width:0.05mm;fill:none" d="M5.149499,8.993203L10.298999,-0L5.149498,-8.993204L-5.149501,-8.993202L-10.298999,0L-5.149497,8.993205L5.149499,8.993203z"/>
    <path transform="matrix(1,0,0,-1,198.119003,-153.623001)" style="stroke:#000000;stroke-width:0.05mm;fill:none" d="M5.149499,8.993203L10.298999,-0L5.149498,-8.993204L-5.149501,-8.993202L-10.298999,0L-5.149497,8.993205L5.149499,8.993203z"/>
    <path transform="matrix(1,0,0,-1,198.119003,-173.942993)" style="stroke:#000000;stroke-width:0.05mm;fill:none" d="M5.149499,8.993203L10.298999,-0L5.149498,-8.993204L-5.149501,-8.993202L-10.298999,0L-5.149497,8.993205L5.149499,8.993203z"/>
    <path transform="matrix(1,0,0,-1,215.899002,-41.862999)" style="stroke:#000000;stroke-width:0.05mm;fill:none" d="M5.149499,8.993203L10.298999,-0L5.149498,-8.993204L-5.149501,-8.993202L-10.298999,0L-5.149497,8.993205L5.149499,8.993203z"/>
    <path transform="matrix(1,0,0,-1,215.899002,-62.182999)" style="stroke:#000000;stroke-width:0.05mm;fill:none" d="M5.149499,8.993203L10.298999,-0L5.149498,-8.993204L-5.149501,-8.993202L-10.298999,0L-5.149497,8.993205L5.149499,8.993203z"/>
    <path transform="matrix(1,0,0,-1,215.899002,-82.503098)" style="stroke:#000000;stroke-width:0.05mm;fill:none" d="M5.149499,8.993203L10.298999,-0L5.149498,-8.993204L-5.149501,-8.993202L-10.298999,0L-5.149497,8.993205L5.149499,8.993203z"/>
    <path transform="matrix(1,0,0,-1,215.899002,-102.822998)" style="stroke:#000000;stroke-width:0.05mm;fill:none" d="M5.149499,8.993203L10.298999,-0L5.149498,-8.993204L-5.149501,-8.993202L-10.298999,0L-5.149497,8.993205L5.149499,8.993203z"/>
    <path transform="matrix(1,0,0,-1,215.899002,-123.142998)" style="stroke:#000000;stroke-width:0.05mm;fill:none" d="M5.149499,8.993203L10.298999,-0L5.149498,-8.993204L-5.149501,-8.993202L-10.298999,0L-5.149497,8.993205L5.149499,8.993203z"/>
    <path transform="matrix(1,0,0,-1,215.899002,-143.462997)" style="stroke:#000000;stroke-width:0.05mm;fill:none" d="M5.149499,8.993203L10.298999,-0L5.149498,-8.993204L-5.149501,-8.993202L-10.298999,0L-5.149497,8.993205L5.149499,8.993203z"/>
    <path transform="matrix(1,0,0,-1,215.899002,-163.783005)" style="stroke:#000000;stroke-width:0.05mm;fill:none" d="M5.149499,8.993203L10.298999,-0L5.149498,-8.993204L-5.149501,-8.993202L-10.298999,0L-5.149497,8.993205L5.149499,8.993203z"/>
    <path transform="matrix(1,0,0,-1,233.679001,-52.022999)" style="stroke:#000000;stroke-width:0.05mm;fill:none" d="M5.149499,8.993203L10.298999,-0L5.149498,-8.993204L-5.149501,-8.993202L-10.298999,0L-5.149497,8.993205L5.149499,8.993203z"/>
    <path transform="matrix(1,0,0,-1,233.679001,-72.343002)" style="stroke:#000000;stroke-width:0.05mm;fill:none" d="M5.149499,8.993203L10.298999,-0L5.149498,-8.993204L-5.149501,-8.993202L-10.298999,0L-5.149497,8.993205L5.149499,8.993203z"/>
    <path transform="matrix(1,0,0,-1,233.679001,-92.663101)" style="stroke:#000000;stroke-width:0.05mm;fill:none" d="M5.149499,8.993203L10.298999,-0L5.149498,-8.993204L-5.149501,-8.993202L-10.298999,0L-5.149497,8.993205L5.149499,8.993203z"/>
    <path transform="matrix(1,0,0,-1,233.679001,-112.983002)" style="stroke:#000000;stroke-width:0.05mm;fill:none" d="M5.149499,8.993203L10.298999,-0L5.149498,-8.993204L-5.149501,-8.993202L-10.298999,0L-5.149497,8.993205L5.149499,8.993203z"/>
    <path transform="matrix(1,0,0,-1,233.679001,-133.302994)" style="stroke:#000000;stroke-width:0.05mm;fill:none" d="M5.149499,8.993203L10.298999,-0L5.149498,-8.993204L-5.149501,-8.993202L-10.298999,0L-5.149497,8.993205L5.149499,8.993203z"/>
    <path transform="matrix(1,0,0,-1,233.679001,-153.623001)" style="stroke:#000000;stroke-width:0.05mm;fill:none" d="M5.149499,8.993203L10.298999,-0L5.149498,-8.993204L-5.149501,-8.993202L-10.298999,0L-5.149497,8.993205L5.149499,8.993203z"/>
    <path transform="matrix(1,0,0,-1,233.679001,-173.942993)" style="stroke:#000000;stroke-width:0.05mm;fill:none" d="M5.149499,8.993203L10.298999,-0L5.149498,-8.993204L-5.149501,-8.993202L-10.298999,0L-5.149497,8.993205L5.149499,8.993203z"/>
    <path transform="matrix(1,0,0,-1,251.459,-41.862999)" style="stroke:#000000;stroke-width:0.05mm;fill:none" d="M5.149499,8.993203L10.298999,-0L5.149498,-8.993204L-5.149501,-8.993202L-10.298999,0L-5.149497,8.993205L5.149499,8.993203z"/>
    <path transform="matrix(1,0,0,-1,251.459,-62.182999)" style="stroke:#000000;stroke-width:0.05mm;fill:none" d="M5.149499,8.993203L10.298999,-0L5.149498,-8.993204L-5.149501,-8.993202L-10.298999,0L-5.149497,8.993205L5.149499,8.993203z"/>
    <path transform="matrix(1,0,0,-1,251.459,-82.503098)" style="stroke:#000000;stroke-width:0.05mm;fill:none" d="M5.149499,8.993203L10.298999,-0L5.149498,-8.993204L-5.149501,-8.993202L-10.298999,0L-5.149497,8.993205L5.149499,8.993203z"/>
    <path transform="matrix(1,0,0,-1,251.459,-102.822998)" style="stroke:#000000;stroke-width:0.05mm;fill:none" d="M5.149499,8.993203L10.298999,-0L5.149498,-8.993204L-5.149501,-8.993202L-10.298999,0L-5.149497,8.993205L5.149499,8.993203z"/>
    <path transform="matrix(1,0,0,-1,251.459,-123.142998)" style="stroke:#000000;stroke-width:0.05mm;fill:none" d="M5.149499,8.993203L10.298999,-0L5.149498,-8.993204L-5.149501,-8.993202L-10.298999,0L-5.149497,8.993205L5.149499,8.993203z"/>
    <path transform="matrix(1,0,0,-1,251.459,-143.462997)" style="stroke:#000000;stroke-width:0.05mm;fill:none" d="M5.149499,8.993203L10.298999,-0L5.149498,-8.993204L-5.149501,-8.993202L-10.298999,0L-5.149497,8.993205L5.149499,8.993203z"/>
    <path transform="matrix(1,0,0,-1,251.459,-163.783005)" style="stroke:#000000;stroke-width:0.05mm;fill:none" d="M5.149499,8.993203L10.298999,-0L5.149498,-8.993204L-5.149501,-8.993202L-10.298999,0L-5.149497,8.993205L5.149499,8.993203z"/>
</svg>
