<?xml version="1.0" encoding="UTF-8"?>
<svg xmlns="http://www.w3.org/2000/svg" width="284.857mm" height="194.119mm" viewBox="5.337910 -195.931519 284.857086 194.119019">
    <path transform="matrix(1,0,0,-1,8.48487,-186.309998)" style="stroke:#000000;stroke-width:0.05mm;fill:none" d="M-1.49987,3.249923L1.49987,3.249923"/>
    <path transform="matrix(1,0,0,-1,8.48487,-186.309998)" style="stroke:#000000;stroke-width:0.05mm;fill:none" d="M1.49987,-3.249923L-1.49987,-3.249923"/>
    <path transform="matrix(1,0,0,-1,8.48487,-186.309998)" style="stroke:#000000;stroke-width:0.05mm;fill:none" d="M1.49987,3.249923L1.49987,-3.249923"/>
    <path transform="matrix(1,0,0,-1,0,0)" style="stroke:#000000;stroke-width:0.05mm;fill:none" d="M6.985001,192.809799L6.985,189.55986"/>
    <path transform="matrix(1,0,0,-1,0,0)" style="stroke:#000000;stroke-width:0.05mm;fill:none" d="M6.985,183.060013L6.985001,179.810089"/>
    <path transform="matrix(1,0,0,-0.480837,3.175,-86.6511)" style="stroke:#000000;stroke-width:0.05mm;fill:none" d="M3.809998,193.743423L133.120132,193.621613L133.120132,190.62149L158.520126,190.62149L158.520126,193.621613L287.019989,193.743423"/>
    <path transform="matrix(-1,0,0,1,288.695129,-186.309998)" style="stroke:#000000;stroke-width:0.05mm;fill:none" d="M-1.49987,3.249923L1.49987,3.249923"/>
    <path transform="matrix(-1,0,0,1,288.695129,-186.309998)" style="stroke:#000000;stroke-width:0.05mm;fill:none" d="M1.49987,-3.249923L-1.49987,-3.249923"/>
    <path transform="matrix(-1,0,0,1,288.695129,-186.309998)" style="stroke:#000000;stroke-width:0.05mm;fill:none" d="M1.49987,3.249923L1.49987,-3.249923"/>
    <path transform="matrix(-1,0,0,1,297.179993,-372.619995)" style="stroke:#000000;stroke-width:0.05mm;fill:none" d="M6.985001,192.809799L6.985,189.55986"/>
    <path transform="matrix(-1,0,0,1,297.179993,-372.619995)" style="stroke:#000000;stroke-width:0.05mm;fill:none" d="M6.985,183.060013L6.985001,179.810089"/>
    <path transform="translate(3.175,-386.553009)" style="stroke:#000000;stroke-width:0.05mm;fill:none" d="M3.809998,193.743423L133.120132,193.621613L133.120132,190.62149L158.520126,190.62149L158.520126,193.621613L287.019989,193.743423"/>
    <path transform="translate(3.175,-366.233002)" style="stroke:#000000;stroke-width:0.05mm;fill:none" d="M3.809998,193.743423L133.120132,193.621613L133.120132,190.62149L158.520126,190.62149L158.520126,193.621613L287.019989,193.743423"/>
    <path transform="matrix(-1,0,0,1,288.695129,-165.98999)" style="stroke:#000000;stroke-width:0.05mm;fill:none" d="M-1.49987,3.249923L1.49987,3.249923"/>
    <path transform="matrix(-1,0,0,1,288.695129,-165.98999)" style="stroke:#000000;stroke-width:0.05mm;fill:none" d="M1.49987,-3.249923L-1.49987,-3.249923"/>
    <path transform="matrix(-1,0,0,1,288.695129,-165.98999)" style="stroke:#000000;stroke-width:0.05mm;fill:none" d="M1.49987,3.249923L1.49987,-3.249923"/>
    <path transform="matrix(-1,0,0,1,297.179993,-352.299988)" style="stroke:#000000;stroke-width:0.05mm;fill:none" d="M6.985001,192.809799L6.985,189.55986"/>
    <path transform="matrix(-1,0,0,1,297.179993,-352.299988)" style="stroke:#000000;stroke-width:0.05mm;fill:none" d="M6.985,183.060013L6.985001,179.810089"/>
    <path transform="matrix(1,0,0,-1,8.48487,-165.98999)" style="stroke:#000000;stroke-width:0.05mm;fill:none" d="M-1.49987,3.249923L1.49987,3.249923"/>
    <path transform="matrix(1,0,0,-1,8.48487,-165.98999)" style="stroke:#000000;stroke-width:0.05mm;fill:none" d="M1.49987,-3.249923L-1.49987,-3.249923"/>
    <path transform="matrix(1,0,0,-1,8.48487,-165.98999)" style="stroke:#000000;stroke-width:0.05mm;fill:none" d="M1.49987,3.249923L1.49987,-3.249923"/>
    <path transform="matrix(1,0,0,-1,0,20.32)" style="stroke:#000000;stroke-width:0.05mm;fill:none" d="M6.985001,192.809799L6.985,189.55986"/>
    <path transform="matrix(1,0,0,-1,0,20.32)" style="stroke:#000000;stroke-width:0.05mm;fill:none" d="M6.985,183.060013L6.985001,179.810089"/>
    <path transform="matrix(1,0,0,-0.480837,3.175,-66.3311)" style="stroke:#000000;stroke-width:0.05mm;fill:none" d="M3.809998,193.743423L133.120132,193.621613L133.120132,190.62149L158.520126,190.62149L158.520126,193.621613L287.019989,193.743423"/>
    <path transform="translate(198.334259,-145.300507)" style="stroke:#000000;stroke-width:0.05mm;fill:none" d="M-1.49987,3.249923L1.49987,3.249923"/>
    <path transform="translate(198.334259,-145.300507)" style="stroke:#000000;stroke-width:0.05mm;fill:none" d="M1.49987,-3.249923L-1.49987,-3.249923"/>
    <path transform="translate(198.334259,-145.300507)" style="stroke:#000000;stroke-width:0.05mm;fill:none" d="M1.49987,3.249923L1.49987,-3.249923"/>
    <path transform="translate(189.849396,-331.610504)" style="stroke:#000000;stroke-width:0.05mm;fill:none" d="M6.985001,192.809799L6.985,189.55986"/>
    <path transform="translate(189.849396,-331.610504)" style="stroke:#000000;stroke-width:0.05mm;fill:none" d="M6.985,183.060013L6.985001,179.810089"/>
    <path transform="matrix(-1,0,0,1,9.945729,-145.300507)" style="stroke:#000000;stroke-width:0.05mm;fill:none" d="M-1.49987,3.249923L1.49987,3.249923"/>
    <path transform="matrix(-1,0,0,1,9.945729,-145.300507)" style="stroke:#000000;stroke-width:0.05mm;fill:none" d="M1.49987,-3.249923L-1.49987,-3.249923"/>
    <path transform="matrix(-1,0,0,1,9.945729,-145.300507)" style="stroke:#000000;stroke-width:0.05mm;fill:none" d="M1.49987,3.249923L1.49987,-3.249923"/>
    <path transform="matrix(-1,0,0,1,18.430599,-331.610504)" style="stroke:#000000;stroke-width:0.05mm;fill:none" d="M6.985001,192.809799L6.985,189.55986"/>
    <path transform="matrix(-1,0,0,1,18.430599,-331.610504)" style="stroke:#000000;stroke-width:0.05mm;fill:none" d="M6.985,183.060013L6.985001,179.810089"/>
    <path transform="matrix(-0,-1,-0.964949,0,198.395401,148.219498)" style="stroke:#000000;stroke-width:0.05mm;fill:none" d="M287.019989,193.743423L287.019989,110.841713"/>
    <path transform="matrix(0,-1,0.964949,0,9.881901,148.219498)" style="stroke:#000000;stroke-width:0.05mm;fill:none" d="M287.019989,193.743423L287.019989,110.841713"/>
    <path transform="matrix(0,1,0.964949,-0,9.8834,-438.820496)" style="stroke:#000000;stroke-width:0.05mm;fill:none" d="M287.019989,193.743423L287.019989,110.841713"/>
    <path transform="matrix(0,1,1,-0,5.998299,-438.820496)" style="stroke:#000000;stroke-width:0.05mm;fill:none" d="M284.019867,85.441704L287.019989,85.441704"/>
    <path transform="matrix(0,1,1,-0,5.998299,-438.820496)" style="stroke:#000000;stroke-width:0.05mm;fill:none" d="M287.019989,110.841713L284.019867,110.841713"/>
    <path transform="matrix(0,1,1,-0,5.998299,-438.820496)" style="stroke:#000000;stroke-width:0.05mm;fill:none" d="M284.019867,110.841713L284.019867,85.441704"/>
    <path transform="matrix(-0,1,-0.964949,-0,198.396393,-438.820496)" style="stroke:#000000;stroke-width:0.05mm;fill:none" d="M287.019989,193.743423L287.019989,110.841713"/>
    <path transform="matrix(0,-0.50036,1,0,5.996799,4.812721)" style="stroke:#000000;stroke-width:0.05mm;fill:none" d="M287.019989,110.841713L284.019867,110.841713"/>
    <path transform="matrix(0,-0.50036,1,0,5.996799,4.812721)" style="stroke:#000000;stroke-width:0.05mm;fill:none" d="M284.019867,85.441704L287.019989,85.441704"/>
    <path transform="matrix(0,-0.50036,1,0,5.996799,4.812721)" style="stroke:#000000;stroke-width:0.05mm;fill:none" d="M284.019867,110.841713L284.019867,85.441704"/>
    <path transform="translate(197.06427,-123.71048)" style="stroke:#000000;stroke-width:0.05mm;fill:none" d="M-1.49987,3.249923L1.49987,3.249923"/>
    <path transform="translate(197.06427,-123.71048)" style="stroke:#000000;stroke-width:0.05mm;fill:none" d="M1.49987,-3.249923L-1.49987,-3.249923"/>
    <path transform="translate(197.06427,-123.71048)" style="stroke:#000000;stroke-width:0.05mm;fill:none" d="M1.49987,3.249923L1.49987,-3.249923"/>
    <path transform="translate(188.579407,-310.020477)" style="stroke:#000000;stroke-width:0.05mm;fill:none" d="M6.985001,192.809799L6.985,189.55986"/>
    <path transform="translate(188.579407,-310.020477)" style="stroke:#000000;stroke-width:0.05mm;fill:none" d="M6.985,183.060013L6.985001,179.810089"/>
    <path transform="matrix(-1,0,0,1,8.675729,-123.71048)" style="stroke:#000000;stroke-width:0.05mm;fill:none" d="M-1.49987,3.249923L1.49987,3.249923"/>
    <path transform="matrix(-1,0,0,1,8.675729,-123.71048)" style="stroke:#000000;stroke-width:0.05mm;fill:none" d="M1.49987,-3.249923L-1.49987,-3.249923"/>
    <path transform="matrix(-1,0,0,1,8.675729,-123.71048)" style="stroke:#000000;stroke-width:0.05mm;fill:none" d="M1.49987,3.249923L1.49987,-3.249923"/>
    <path transform="matrix(-1,0,0,1,17.160599,-310.020477)" style="stroke:#000000;stroke-width:0.05mm;fill:none" d="M6.985001,192.809799L6.985,189.55986"/>
    <path transform="matrix(-1,0,0,1,17.160599,-310.020477)" style="stroke:#000000;stroke-width:0.05mm;fill:none" d="M6.985,183.060013L6.985001,179.810089"/>
    <path transform="matrix(-0,-1,-0.964949,0,197.125397,169.809525)" style="stroke:#000000;stroke-width:0.05mm;fill:none" d="M287.019989,193.743423L287.019989,110.841713"/>
    <path transform="matrix(0,-1,0.964949,0,8.6119,169.809525)" style="stroke:#000000;stroke-width:0.05mm;fill:none" d="M287.019989,193.743423L287.019989,110.841713"/>
    <path transform="matrix(0,1,0.964949,-0,8.6134,-417.230469)" style="stroke:#000000;stroke-width:0.05mm;fill:none" d="M287.019989,193.743423L287.019989,110.841713"/>
    <path transform="matrix(0,1,1,-0,4.728298,-417.230469)" style="stroke:#000000;stroke-width:0.05mm;fill:none" d="M284.019867,85.441704L287.019989,85.441704"/>
    <path transform="matrix(0,1,1,-0,4.728298,-417.230469)" style="stroke:#000000;stroke-width:0.05mm;fill:none" d="M287.019989,110.841713L284.019867,110.841713"/>
    <path transform="matrix(0,1,1,-0,4.728298,-417.230469)" style="stroke:#000000;stroke-width:0.05mm;fill:none" d="M284.019867,110.841713L284.019867,85.441704"/>
    <path transform="matrix(-0,1,-0.964949,-0,197.126404,-417.230469)" style="stroke:#000000;stroke-width:0.05mm;fill:none" d="M287.019989,193.743423L287.019989,110.841713"/>
    <path transform="matrix(0,-0.50036,1,0,4.726799,26.402756)" style="stroke:#000000;stroke-width:0.05mm;fill:none" d="M287.019989,110.841713L284.019867,110.841713"/>
    <path transform="matrix(0,-0.50036,1,0,4.726799,26.402756)" style="stroke:#000000;stroke-width:0.05mm;fill:none" d="M284.019867,85.441704L287.019989,85.441704"/>
    <path transform="matrix(0,-0.50036,1,0,4.726799,26.402756)" style="stroke:#000000;stroke-width:0.05mm;fill:none" d="M284.019867,110.841713L284.019867,85.441704"/>
    <path transform="matrix(-1,0,0,2.38472,288.695007,-101.135002)" style="stroke:#000000;stroke-width:0.05mm;fill:none" d="M-1.49987,3.249923L1.49987,3.249923"/>
    <path transform="matrix(1,0,0,2.38472,8.48487,-101.135002)" style="stroke:#000000;stroke-width:0.05mm;fill:none" d="M-1.49987,3.249923L1.49987,3.249923"/>
    <path transform="matrix(-1,0,0,1,288.695007,-96.6343)" style="stroke:#000000;stroke-width:0.05mm;fill:none" d="M1.49987,3.249923L1.49987,-3.249923"/>
    <path transform="matrix(1,0,0,0.480837,3.175,-205.294006)" style="stroke:#000000;stroke-width:0.05mm;fill:none" d="M3.809998,193.743423L133.120132,193.621613L133.120132,190.62149L158.520126,190.62149L158.520126,193.621613L287.019989,193.743423"/>
    <path transform="matrix(1,0,0,-1,3.175,112.609001)" style="stroke:#000000;stroke-width:0.05mm;fill:none" d="M3.809998,193.743423L133.120132,193.621613L133.120132,190.62149L158.520126,190.62149L158.520126,193.621613L287.019989,193.743423"/>
    <path transform="matrix(1,0,0,-1,0,-4.064)" style="stroke:#000000;stroke-width:0.05mm;fill:none" d="M6.985,77.070099L6.984999,89.320381"/>
    <path transform="matrix(-1,0,0,-1,297.179993,-4.064)" style="stroke:#000000;stroke-width:0.05mm;fill:none" d="M6.985,77.070099L6.984999,89.320381"/>
    <path transform="matrix(-1,0,0,2.38472,288.695007,-92.134102)" style="stroke:#000000;stroke-width:0.05mm;fill:none" d="M1.49987,-3.249923L-1.49987,-3.249923"/>
    <path transform="matrix(1,0,0,-1,0,-4.064)" style="stroke:#000000;stroke-width:0.05mm;fill:none" d="M6.985001,108.07058L6.984999,95.820244"/>
    <path transform="matrix(-1,0,0,-1,297.179993,-4.064)" style="stroke:#000000;stroke-width:0.05mm;fill:none" d="M6.985001,108.07058L6.984999,95.820244"/>
    <path transform="matrix(1,0,0,2.38472,8.48487,-92.134102)" style="stroke:#000000;stroke-width:0.05mm;fill:none" d="M1.49987,-3.249923L-1.49987,-3.249923"/>
    <path transform="translate(8.48487,-96.6343)" style="stroke:#000000;stroke-width:0.05mm;fill:none" d="M1.49987,3.249923L1.49987,-3.249923"/>
    <path transform="matrix(0,0.50036,1,-0,2.89184,-216.752411)" style="stroke:#000000;stroke-width:0.05mm;fill:none" d="M284.019867,85.441704L287.019989,85.441704"/>
    <path transform="matrix(0,0.50036,1,-0,2.89184,-216.752411)" style="stroke:#000000;stroke-width:0.05mm;fill:none" d="M287.019989,110.841713L284.019867,110.841713"/>
    <path transform="matrix(0,0.50036,1,-0,2.89184,-216.752411)" style="stroke:#000000;stroke-width:0.05mm;fill:none" d="M284.019867,110.841713L284.019867,85.441704"/>
    <path transform="matrix(0,1,0.964949,-0,6.77694,-360.158813)" style="stroke:#000000;stroke-width:0.05mm;fill:none" d="M287.019989,193.743423L287.019989,110.841713"/>
    <path transform="matrix(-0,1,-0.964949,-0,195.29007,-360.158813)" style="stroke:#000000;stroke-width:0.05mm;fill:none" d="M287.019989,193.743423L287.019989,110.841713"/>
    <path transform="matrix(0,-1,0.964949,0,6.776951,244.881409)" style="stroke:#000000;stroke-width:0.05mm;fill:none" d="M287.019989,193.743423L287.019989,110.841713"/>
    <path transform="matrix(0,-1,1,0,2.89185,244.881409)" style="stroke:#000000;stroke-width:0.05mm;fill:none" d="M284.019867,85.441704L287.019989,85.441704"/>
    <path transform="matrix(0,-1,1,0,2.89185,244.881409)" style="stroke:#000000;stroke-width:0.05mm;fill:none" d="M287.019989,110.841713L284.019867,110.841713"/>
    <path transform="matrix(0,-1,1,0,2.89185,244.881409)" style="stroke:#000000;stroke-width:0.05mm;fill:none" d="M284.019867,110.841713L284.019867,85.441704"/>
    <path transform="matrix(-0,-1,-0.964949,0,195.289948,244.881409)" style="stroke:#000000;stroke-width:0.05mm;fill:none" d="M287.019989,193.743423L287.019989,110.841713"/>
    <path transform="matrix(1,0,0,-2.38472,195.229416,-53.138695)" style="stroke:#000000;stroke-width:0.05mm;fill:none" d="M-1.49987,3.249923L1.49987,3.249923"/>
    <path transform="translate(186.744553,-150.209198)" style="stroke:#000000;stroke-width:0.05mm;fill:none" d="M6.985,77.070099L6.984999,89.320381"/>
    <path transform="translate(186.744553,-150.209198)" style="stroke:#000000;stroke-width:0.05mm;fill:none" d="M6.985001,108.07058L6.984999,95.820244"/>
    <path transform="matrix(1,0,0,-2.38472,195.229416,-62.139099)" style="stroke:#000000;stroke-width:0.05mm;fill:none" d="M1.49987,-3.249923L-1.49987,-3.249923"/>
    <path transform="matrix(1,0,0,-1,195.229416,-57.638901)" style="stroke:#000000;stroke-width:0.05mm;fill:none" d="M1.49987,3.249923L1.49987,-3.249923"/>
    <path transform="matrix(-1,0,0,-2.38472,6.83778,-53.138695)" style="stroke:#000000;stroke-width:0.05mm;fill:none" d="M-1.49987,3.249923L1.49987,3.249923"/>
    <path transform="matrix(-1,0,0,1,15.32265,-150.209198)" style="stroke:#000000;stroke-width:0.05mm;fill:none" d="M6.985,77.070099L6.984999,89.320381"/>
    <path transform="matrix(-1,0,0,1,15.32265,-150.209198)" style="stroke:#000000;stroke-width:0.05mm;fill:none" d="M6.985001,108.07058L6.984999,95.820244"/>
    <path transform="matrix(-1,0,0,-2.38472,6.83778,-62.139099)" style="stroke:#000000;stroke-width:0.05mm;fill:none" d="M1.49987,-3.249923L-1.49987,-3.249923"/>
    <path transform="matrix(-1,0,0,-1,6.83778,-57.638901)" style="stroke:#000000;stroke-width:0.05mm;fill:none" d="M1.49987,3.249923L1.49987,-3.249923"/>
    <path transform="matrix(-1,0,0,2.38472,288.695007,-24.935005)" style="stroke:#000000;stroke-width:0.05mm;fill:none" d="M-1.49987,3.249923L1.49987,3.249923"/>
    <path transform="matrix(1,0,0,2.38472,8.48487,-24.935005)" style="stroke:#000000;stroke-width:0.05mm;fill:none" d="M-1.49987,3.249923L1.49987,3.249923"/>
    <path transform="matrix(-1,0,0,1,288.695007,-20.434303)" style="stroke:#000000;stroke-width:0.05mm;fill:none" d="M1.49987,3.249923L1.49987,-3.249923"/>
    <path transform="matrix(1,0,0,0.480837,3.175,-129.094009)" style="stroke:#000000;stroke-width:0.05mm;fill:none" d="M3.809998,193.743423L133.120132,193.621613L133.120132,190.62149L158.520126,190.62149L158.520126,193.621613L287.019989,193.743423"/>
    <path transform="matrix(1,0,0,-1,3.175,188.80899)" style="stroke:#000000;stroke-width:0.05mm;fill:none" d="M3.809998,193.743423L133.120132,193.621613L133.120132,190.62149L158.520126,190.62149L158.520126,193.621613L287.019989,193.743423"/>
    <path transform="matrix(1,0,0,-1,0,72.135994)" style="stroke:#000000;stroke-width:0.05mm;fill:none" d="M6.985,77.070099L6.984999,89.320381"/>
    <path transform="matrix(-1,0,0,-1,297.179993,72.135994)" style="stroke:#000000;stroke-width:0.05mm;fill:none" d="M6.985,77.070099L6.984999,89.320381"/>
    <path transform="matrix(-1,0,0,2.38472,288.695007,-15.934105)" style="stroke:#000000;stroke-width:0.05mm;fill:none" d="M1.49987,-3.249923L-1.49987,-3.249923"/>
    <path transform="matrix(1,0,0,-1,0,72.135994)" style="stroke:#000000;stroke-width:0.05mm;fill:none" d="M6.985001,108.07058L6.984999,95.820244"/>
    <path transform="matrix(-1,0,0,-1,297.179993,72.135994)" style="stroke:#000000;stroke-width:0.05mm;fill:none" d="M6.985001,108.07058L6.984999,95.820244"/>
    <path transform="matrix(1,0,0,2.38472,8.48487,-15.934105)" style="stroke:#000000;stroke-width:0.05mm;fill:none" d="M1.49987,-3.249923L-1.49987,-3.249923"/>
    <path transform="translate(8.48487,-20.434303)" style="stroke:#000000;stroke-width:0.05mm;fill:none" d="M1.49987,3.249923L1.49987,-3.249923"/>
    <path transform="matrix(1,0,0,-1,55.081299,-86.904297)" style="stroke:#000000;stroke-width:0.05mm;fill:none" d="M98.85807,-59.514332L86.85807,-59.514332"/>
    <path transform="matrix(1,0,0,-1,55.081299,-86.904297)" style="stroke:#000000;stroke-width:0.05mm;fill:none" d="M98.85807,-68.514336L98.85807,-59.514336"/>
    <path transform="matrix(1,0,0,-1,55.081299,-86.904297)" style="stroke:#000000;stroke-width:0.05mm;fill:none" d="M86.85807,-68.514336L98.85807,-68.514336"/>
    <path transform="matrix(1,0,0,-1,55.081299,-86.904297)" style="stroke:#000000;stroke-width:0.05mm;fill:none" d="M86.85807,-59.514332L86.85807,-68.514336"/>
</svg>
