<?xml version="1.0" encoding="UTF-8"?>
<svg xmlns="http://www.w3.org/2000/svg" width="283.210mm" height="191.203mm" viewBox="3.809998 -193.743423 283.209991 191.203430">
    <path transform="matrix(1,0,0,-1,119.362999,-64.770004)" style="stroke:#000000;stroke-width:0.05mm;fill:none" d="M4.399408,7.619998L8.798816,-0L4.399406,-7.619999L-4.399409,-7.619997L-8.798816,0L-4.399406,7.619999L4.399408,7.619998z"/>
    <path transform="matrix(1,0,0,-1,243.822998,-90.169998)" style="stroke:#000000;stroke-width:0.05mm;fill:none" d="M4.399408,7.619998L8.798816,-0L4.399406,-7.619999L-4.399409,-7.619997L-8.798816,0L-4.399406,7.619999L4.399408,7.619998z"/>
    <path transform="matrix(1,0,0,-1,154.923004,-46.989998)" style="stroke:#000000;stroke-width:0.05mm;fill:none" d="M4.399408,7.619998L8.798816,-0L4.399406,-7.619999L-4.399409,-7.619997L-8.798816,0L-4.399406,7.619999L4.399408,7.619998z"/>
    <path transform="matrix(1,0,0,-1,226.042999,-100.330002)" style="stroke:#000000;stroke-width:0.05mm;fill:none" d="M4.399408,7.619998L8.798816,-0L4.399406,-7.619999L-4.399409,-7.619997L-8.798816,0L-4.399406,7.619999L4.399408,7.619998z"/>
    <path transform="matrix(1,0,0,-1,30.463001,-72.389999)" style="stroke:#000000;stroke-width:0.05mm;fill:none" d="M4.399408,7.619998L8.798816,-0L4.399406,-7.619999L-4.399409,-7.619997L-8.798816,0L-4.399406,7.619999L4.399408,7.619998z"/>
    <path transform="matrix(1,0,0,-1,83.803001,-64.770004)" style="stroke:#000000;stroke-width:0.05mm;fill:none" d="M4.399408,7.619998L8.798816,-0L4.399406,-7.619999L-4.399409,-7.619997L-8.798816,0L-4.399406,7.619999L4.399408,7.619998z"/>
    <path transform="matrix(1,0,0,-1,154.923004,-82.550003)" style="stroke:#000000;stroke-width:0.05mm;fill:none" d="M4.399408,7.619998L8.798816,-0L4.399406,-7.619999L-4.399409,-7.619997L-8.798816,0L-4.399406,7.619999L4.399408,7.619998z"/>
    <path transform="matrix(1,0,0,-1,101.583,-107.949997)" style="stroke:#000000;stroke-width:0.05mm;fill:none" d="M4.399408,7.619998L8.798816,-0L4.399406,-7.619999L-4.399409,-7.619997L-8.798816,0L-4.399406,7.619999L4.399408,7.619998z"/>
    <path transform="matrix(1,0,0,-1,208.263,-36.829998)" style="stroke:#000000;stroke-width:0.05mm;fill:none" d="M4.399408,7.619998L8.798816,-0L4.399406,-7.619999L-4.399409,-7.619997L-8.798816,0L-4.399406,7.619999L4.399408,7.619998z"/>
    <path transform="matrix(1,0,0,-1,190.483002,-118.110001)" style="stroke:#000000;stroke-width:0.05mm;fill:none" d="M4.399408,7.619998L8.798816,-0L4.399406,-7.619999L-4.399409,-7.619997L-8.798816,0L-4.399406,7.619999L4.399408,7.619998z"/>
    <path transform="matrix(1,0,0,-1,101.583,-72.389999)" style="stroke:#000000;stroke-width:0.05mm;fill:none" d="M4.399408,7.619998L8.798816,-0L4.399406,-7.619999L-4.399409,-7.619997L-8.798816,0L-4.399406,7.619999L4.399408,7.619998z"/>
    <path transform="matrix(1,0,0,-1,226.042999,-46.989998)" style="stroke:#000000;stroke-width:0.05mm;fill:none" d="M4.399408,7.619998L8.798816,-0L4.399406,-7.619999L-4.399409,-7.619997L-8.798816,0L-4.399406,7.619999L4.399408,7.619998z"/>
    <path transform="matrix(1,0,0,-1,66.023003,-36.829998)" style="stroke:#000000;stroke-width:0.05mm;fill:none" d="M4.399408,7.619998L8.798816,-0L4.399406,-7.619999L-4.399409,-7.619997L-8.798816,0L-4.399406,7.619999L4.399408,7.619998z"/>
    <path transform="matrix(1,0,0,-1,172.703003,-72.389999)" style="stroke:#000000;stroke-width:0.05mm;fill:none" d="M4.399408,7.619998L8.798816,-0L4.399406,-7.619999L-4.399409,-7.619997L-8.798816,0L-4.399406,7.619999L4.399408,7.619998z"/>
    <path transform="matrix(1,0,0,-1,190.483002,-82.550003)" style="stroke:#000000;stroke-width:0.05mm;fill:none" d="M4.399408,7.619998L8.798816,-0L4.399406,-7.619999L-4.399409,-7.619997L-8.798816,0L-4.399406,7.619999L4.399408,7.619998z"/>
    <path transform="matrix(1,0,0,-1,172.703003,-107.949997)" style="stroke:#000000;stroke-width:0.05mm;fill:none" d="M4.399408,7.619998L8.798816,-0L4.399406,-7.619999L-4.399409,-7.619997L-8.798816,0L-4.399406,7.619999L4.399408,7.619998z"/>
    <path transform="matrix(1,0,0,-1,101.583,-90.169998)" style="stroke:#000000;stroke-width:0.05mm;fill:none" d="M4.399408,7.619998L8.798816,-0L4.399406,-7.619999L-4.399409,-7.619997L-8.798816,0L-4.399406,7.619999L4.399408,7.619998z"/>
    <path transform="matrix(1,0,0,-1,190.483002,-100.330002)" style="stroke:#000000;stroke-width:0.05mm;fill:none" d="M4.399408,7.619998L8.798816,-0L4.399406,-7.619999L-4.399409,-7.619997L-8.798816,0L-4.399406,7.619999L4.399408,7.619998z"/>
    <path transform="matrix(1,0,0,-1,261.602997,-64.770004)" style="stroke:#000000;stroke-width:0.05mm;fill:none" d="M4.399408,7.619998L8.798816,-0L4.399406,-7.619999L-4.399409,-7.619997L-8.798816,0L-4.399406,7.619999L4.399408,7.619998z"/>
    <path transform="matrix(1,0,0,-1,30.463001,-107.949997)" style="stroke:#000000;stroke-width:0.05mm;fill:none" d="M4.399408,7.619998L8.798816,-0L4.399406,-7.619999L-4.399409,-7.619997L-8.798816,0L-4.399406,7.619999L4.399408,7.619998z"/>
    <path transform="matrix(1,0,0,-1,226.042999,-82.550003)" style="stroke:#000000;stroke-width:0.05mm;fill:none" d="M4.399408,7.619998L8.798816,-0L4.399406,-7.619999L-4.399409,-7.619997L-8.798816,0L-4.399406,7.619999L4.399408,7.619998z"/>
    <path transform="matrix(1,0,0,-1,83.803001,-118.110001)" style="stroke:#000000;stroke-width:0.05mm;fill:none" d="M4.399408,7.619998L8.798816,-0L4.399406,-7.619999L-4.399409,-7.619997L-8.798816,0L-4.399406,7.619999L4.399408,7.619998z"/>
    <path transform="matrix(1,0,0,-1,261.602997,-118.110001)" style="stroke:#000000;stroke-width:0.05mm;fill:none" d="M4.399408,7.619998L8.798816,-0L4.399406,-7.619999L-4.399409,-7.619997L-8.798816,0L-4.399406,7.619999L4.399408,7.619998z"/>
    <path transform="matrix(1,0,0,-1,243.822998,-72.389999)" style="stroke:#000000;stroke-width:0.05mm;fill:none" d="M4.399408,7.619998L8.798816,-0L4.399406,-7.619999L-4.399409,-7.619997L-8.798816,0L-4.399406,7.619999L4.399408,7.619998z"/>
    <path transform="matrix(1,0,0,-1,172.703003,-90.169998)" style="stroke:#000000;stroke-width:0.05mm;fill:none" d="M4.399408,7.619998L8.798816,-0L4.399406,-7.619999L-4.399409,-7.619997L-8.798816,0L-4.399406,7.619999L4.399408,7.619998z"/>
    <path transform="matrix(1,0,0,-1,208.263,-72.389999)" style="stroke:#000000;stroke-width:0.05mm;fill:none" d="M4.399408,7.619998L8.798816,-0L4.399406,-7.619999L-4.399409,-7.619997L-8.798816,0L-4.399406,7.619999L4.399408,7.619998z"/>
    <path transform="matrix(1,0,0,-1,119.362999,-100.330002)" style="stroke:#000000;stroke-width:0.05mm;fill:none" d="M4.399408,7.619998L8.798816,-0L4.399406,-7.619999L-4.399409,-7.619997L-8.798816,0L-4.399406,7.619999L4.399408,7.619998z"/>
    <path transform="matrix(1,0,0,-1,119.362999,-46.989998)" style="stroke:#000000;stroke-width:0.05mm;fill:none" d="M4.399408,7.619998L8.798816,-0L4.399406,-7.619999L-4.399409,-7.619997L-8.798816,0L-4.399406,7.619999L4.399408,7.619998z"/>
    <path transform="matrix(1,0,0,-1,137.143005,-90.169998)" style="stroke:#000000;stroke-width:0.05mm;fill:none" d="M4.399408,7.619998L8.798816,-0L4.399406,-7.619999L-4.399409,-7.619997L-8.798816,0L-4.399406,7.619999L4.399408,7.619998z"/>
    <path transform="matrix(1,0,0,-1,48.243,-46.989998)" style="stroke:#000000;stroke-width:0.05mm;fill:none" d="M4.399408,7.619998L8.798816,-0L4.399406,-7.619999L-4.399409,-7.619997L-8.798816,0L-4.399406,7.619999L4.399408,7.619998z"/>
    <path transform="matrix(1,0,0,-1,83.803001,-82.550003)" style="stroke:#000000;stroke-width:0.05mm;fill:none" d="M4.399408,7.619998L8.798816,-0L4.399406,-7.619999L-4.399409,-7.619997L-8.798816,0L-4.399406,7.619999L4.399408,7.619998z"/>
    <path transform="matrix(1,0,0,-1,226.042999,-64.770004)" style="stroke:#000000;stroke-width:0.05mm;fill:none" d="M4.399408,7.619998L8.798816,-0L4.399406,-7.619999L-4.399409,-7.619997L-8.798816,0L-4.399406,7.619999L4.399408,7.619998z"/>
    <path transform="matrix(1,0,0,-1,30.463001,-125.729996)" style="stroke:#000000;stroke-width:0.05mm;fill:none" d="M4.399408,7.619998L8.798816,-0L4.399406,-7.619999L-4.399409,-7.619997L-8.798816,0L-4.399406,7.619999L4.399408,7.619998z"/>
    <path transform="matrix(1,0,0,-1,261.602997,-46.989998)" style="stroke:#000000;stroke-width:0.05mm;fill:none" d="M4.399408,7.619998L8.798816,-0L4.399406,-7.619999L-4.399409,-7.619997L-8.798816,0L-4.399406,7.619999L4.399408,7.619998z"/>
    <path transform="matrix(1,0,0,-1,261.602997,-100.330002)" style="stroke:#000000;stroke-width:0.05mm;fill:none" d="M4.399408,7.619998L8.798816,-0L4.399406,-7.619999L-4.399409,-7.619997L-8.798816,0L-4.399406,7.619999L4.399408,7.619998z"/>
    <path transform="matrix(1,0,0,-1,30.463001,-36.829998)" style="stroke:#000000;stroke-width:0.05mm;fill:none" d="M4.399408,7.619998L8.798816,-0L4.399406,-7.619999L-4.399409,-7.619997L-8.798816,0L-4.399406,7.619999L4.399408,7.619998z"/>
    <path transform="matrix(1,0,0,-1,66.023003,-90.169998)" style="stroke:#000000;stroke-width:0.05mm;fill:none" d="M4.399408,7.619998L8.798816,-0L4.399406,-7.619999L-4.399409,-7.619997L-8.798816,0L-4.399406,7.619999L4.399408,7.619998z"/>
    <path transform="matrix(1,0,0,-1,172.703003,-36.829998)" style="stroke:#000000;stroke-width:0.05mm;fill:none" d="M4.399408,7.619998L8.798816,-0L4.399406,-7.619999L-4.399409,-7.619997L-8.798816,0L-4.399406,7.619999L4.399408,7.619998z"/>
    <path transform="matrix(1,0,0,-1,243.822998,-36.829998)" style="stroke:#000000;stroke-width:0.05mm;fill:none" d="M4.399408,7.619998L8.798816,-0L4.399406,-7.619999L-4.399409,-7.619997L-8.798816,0L-4.399406,7.619999L4.399408,7.619998z"/>
    <path transform="matrix(1,0,0,-1,83.803001,-100.330002)" style="stroke:#000000;stroke-width:0.05mm;fill:none" d="M4.399408,7.619998L8.798816,-0L4.399406,-7.619999L-4.399409,-7.619997L-8.798816,0L-4.399406,7.619999L4.399408,7.619998z"/>
    <path transform="matrix(1,0,0,-1,137.143005,-72.389999)" style="stroke:#000000;stroke-width:0.05mm;fill:none" d="M4.399408,7.619998L8.798816,-0L4.399406,-7.619999L-4.399409,-7.619997L-8.798816,0L-4.399406,7.619999L4.399408,7.619998z"/>
    <path transform="matrix(1,0,0,-1,101.583,-36.829998)" style="stroke:#000000;stroke-width:0.05mm;fill:none" d="M4.399408,7.619998L8.798816,-0L4.399406,-7.619999L-4.399409,-7.619997L-8.798816,0L-4.399406,7.619999L4.399408,7.619998z"/>
    <path transform="matrix(1,0,0,-1,208.263,-54.610001)" style="stroke:#000000;stroke-width:0.05mm;fill:none" d="M4.399408,7.619998L8.798816,-0L4.399406,-7.619999L-4.399409,-7.619997L-8.798816,0L-4.399406,7.619999L4.399408,7.619998z"/>
    <path transform="matrix(1,0,0,-1,190.483002,-46.989998)" style="stroke:#000000;stroke-width:0.05mm;fill:none" d="M4.399408,7.619998L8.798816,-0L4.399406,-7.619999L-4.399409,-7.619997L-8.798816,0L-4.399406,7.619999L4.399408,7.619998z"/>
    <path transform="matrix(1,0,0,-1,208.263,-125.729996)" style="stroke:#000000;stroke-width:0.05mm;fill:none" d="M4.399408,7.619998L8.798816,-0L4.399406,-7.619999L-4.399409,-7.619997L-8.798816,0L-4.399406,7.619999L4.399408,7.619998z"/>
    <path transform="matrix(1,0,0,-1,101.583,-54.610001)" style="stroke:#000000;stroke-width:0.05mm;fill:none" d="M4.399408,7.619998L8.798816,-0L4.399406,-7.619999L-4.399409,-7.619997L-8.798816,0L-4.399406,7.619999L4.399408,7.619998z"/>
    <path transform="matrix(1,0,0,-1,172.703003,-54.610001)" style="stroke:#000000;stroke-width:0.05mm;fill:none" d="M4.399408,7.619998L8.798816,-0L4.399406,-7.619999L-4.399409,-7.619997L-8.798816,0L-4.399406,7.619999L4.399408,7.619998z"/>
    <path transform="matrix(1,0,0,-1,154.923004,-118.110001)" style="stroke:#000000;stroke-width:0.05mm;fill:none" d="M4.399408,7.619998L8.798816,-0L4.399406,-7.619999L-4.399409,-7.619997L-8.798816,0L-4.399406,7.619999L4.399408,7.619998z"/>
    <path transform="matrix(1,0,0,-1,48.243,-100.330002)" style="stroke:#000000;stroke-width:0.05mm;fill:none" d="M4.399408,7.619998L8.798816,-0L4.399406,-7.619999L-4.399409,-7.619997L-8.798816,0L-4.399406,7.619999L4.399408,7.619998z"/>
    <path transform="matrix(1,0,0,-1,208.263,-107.949997)" style="stroke:#000000;stroke-width:0.05mm;fill:none" d="M4.399408,7.619998L8.798816,-0L4.399406,-7.619999L-4.399409,-7.619997L-8.798816,0L-4.399406,7.619999L4.399408,7.619998z"/>
    <path transform="matrix(1,0,0,-1,243.822998,-125.729996)" style="stroke:#000000;stroke-width:0.05mm;fill:none" d="M4.399408,7.619998L8.798816,-0L4.399406,-7.619999L-4.399409,-7.619997L-8.798816,0L-4.399406,7.619999L4.399408,7.619998z"/>
    <path transform="matrix(1,0,0,-1,66.023003,-54.610001)" style="stroke:#000000;stroke-width:0.05mm;fill:none" d="M4.399408,7.619998L8.798816,-0L4.399406,-7.619999L-4.399409,-7.619997L-8.798816,0L-4.399406,7.619999L4.399408,7.619998z"/>
    <path transform="matrix(1,0,0,-1,154.923004,-64.770004)" style="stroke:#000000;stroke-width:0.05mm;fill:none" d="M4.399408,7.619998L8.798816,-0L4.399406,-7.619999L-4.399409,-7.619997L-8.798816,0L-4.399406,7.619999L4.399408,7.619998z"/>
    <path transform="matrix(1,0,0,-1,48.243,-64.770004)" style="stroke:#000000;stroke-width:0.05mm;fill:none" d="M4.399408,7.619998L8.798816,-0L4.399406,-7.619999L-4.399409,-7.619997L-8.798816,0L-4.399406,7.619999L4.399408,7.619998z"/>
    <path transform="matrix(1,0,0,-1,48.243,-118.110001)" style="stroke:#000000;stroke-width:0.05mm;fill:none" d="M4.399408,7.619998L8.798816,-0L4.399406,-7.619999L-4.399409,-7.619997L-8.798816,0L-4.399406,7.619999L4.399408,7.619998z"/>
    <path transform="matrix(1,0,0,-1,190.483002,-64.770004)" style="stroke:#000000;stroke-width:0.05mm;fill:none" d="M4.399408,7.619998L8.798816,-0L4.399406,-7.619999L-4.399409,-7.619997L-8.798816,0L-4.399406,7.619999L4.399408,7.619998z"/>
    <path transform="matrix(1,0,0,-1,119.362999,-82.550003)" style="stroke:#000000;stroke-width:0.05mm;fill:none" d="M4.399408,7.619998L8.798816,-0L4.399406,-7.619999L-4.399409,-7.619997L-8.798816,0L-4.399406,7.619999L4.399408,7.619998z"/>
    <path transform="matrix(1,0,0,-1,137.143005,-125.729996)" style="stroke:#000000;stroke-width:0.05mm;fill:none" d="M4.399408,7.619998L8.798816,-0L4.399406,-7.619999L-4.399409,-7.619997L-8.798816,0L-4.399406,7.619999L4.399408,7.619998z"/>
    <path transform="matrix(1,0,0,-1,83.803001,-46.989998)" style="stroke:#000000;stroke-width:0.05mm;fill:none" d="M4.399408,7.619998L8.798816,-0L4.399406,-7.619999L-4.399409,-7.619997L-8.798816,0L-4.399406,7.619999L4.399408,7.619998z"/>
    <path transform="matrix(1,0,0,-1,226.042999,-118.110001)" style="stroke:#000000;stroke-width:0.05mm;fill:none" d="M4.399408,7.619998L8.798816,-0L4.399406,-7.619999L-4.399409,-7.619997L-8.798816,0L-4.399406,7.619999L4.399408,7.619998z"/>
    <path transform="matrix(1,0,0,-1,137.143005,-107.949997)" style="stroke:#000000;stroke-width:0.05mm;fill:none" d="M4.399408,7.619998L8.798816,-0L4.399406,-7.619999L-4.399409,-7.619997L-8.798816,0L-4.399406,7.619999L4.399408,7.619998z"/>
    <path transform="matrix(1,0,0,-1,66.023003,-125.729996)" style="stroke:#000000;stroke-width:0.05mm;fill:none" d="M4.399408,7.619998L8.798816,-0L4.399406,-7.619999L-4.399409,-7.619997L-8.798816,0L-4.399406,7.619999L4.399408,7.619998z"/>
    <path transform="matrix(1,0,0,-1,30.463001,-54.610001)" style="stroke:#000000;stroke-width:0.05mm;fill:none" d="M4.399408,7.619998L8.798816,-0L4.399406,-7.619999L-4.399409,-7.619997L-8.798816,0L-4.399406,7.619999L4.399408,7.619998z"/>
    <path transform="matrix(1,0,0,-1,119.362999,-118.110001)" style="stroke:#000000;stroke-width:0.05mm;fill:none" d="M4.399408,7.619998L8.798816,-0L4.399406,-7.619999L-4.399409,-7.619997L-8.798816,0L-4.399406,7.619999L4.399408,7.619998z"/>
    <path transform="matrix(1,0,0,-1,48.243,-82.550003)" style="stroke:#000000;stroke-width:0.05mm;fill:none" d="M4.399408,7.619998L8.798816,-0L4.399406,-7.619999L-4.399409,-7.619997L-8.798816,0L-4.399406,7.619999L4.399408,7.619998z"/>
    <path transform="matrix(1,0,0,-1,208.263,-90.169998)" style="stroke:#000000;stroke-width:0.05mm;fill:none" d="M4.399408,7.619998L8.798816,-0L4.399406,-7.619999L-4.399409,-7.619997L-8.798816,0L-4.399406,7.619999L4.399408,7.619998z"/>
    <path transform="matrix(1,0,0,-1,101.583,-125.729996)" style="stroke:#000000;stroke-width:0.05mm;fill:none" d="M4.399408,7.619998L8.798816,-0L4.399406,-7.619999L-4.399409,-7.619997L-8.798816,0L-4.399406,7.619999L4.399408,7.619998z"/>
    <path transform="matrix(1,0,0,-1,137.143005,-54.610001)" style="stroke:#000000;stroke-width:0.05mm;fill:none" d="M4.399408,7.619998L8.798816,-0L4.399406,-7.619999L-4.399409,-7.619997L-8.798816,0L-4.399406,7.619999L4.399408,7.619998z"/>
    <path transform="matrix(1,0,0,-1,261.602997,-82.550003)" style="stroke:#000000;stroke-width:0.05mm;fill:none" d="M4.399408,7.619998L8.798816,-0L4.399406,-7.619999L-4.399409,-7.619997L-8.798816,0L-4.399406,7.619999L4.399408,7.619998z"/>
    <path transform="matrix(1,0,0,-1,66.023003,-107.949997)" style="stroke:#000000;stroke-width:0.05mm;fill:none" d="M4.399408,7.619998L8.798816,-0L4.399406,-7.619999L-4.399409,-7.619997L-8.798816,0L-4.399406,7.619999L4.399408,7.619998z"/>
    <path transform="matrix(1,0,0,-1,30.463001,-90.169998)" style="stroke:#000000;stroke-width:0.05mm;fill:none" d="M4.399408,7.619998L8.798816,-0L4.399406,-7.619999L-4.399409,-7.619997L-8.798816,0L-4.399406,7.619999L4.399408,7.619998z"/>
    <path transform="matrix(1,0,0,-1,243.822998,-54.610001)" style="stroke:#000000;stroke-width:0.05mm;fill:none" d="M4.399408,7.619998L8.798816,-0L4.399406,-7.619999L-4.399409,-7.619997L-8.798816,0L-4.399406,7.619999L4.399408,7.619998z"/>
    <path transform="matrix(1,0,0,-1,154.923004,-100.330002)" style="stroke:#000000;stroke-width:0.05mm;fill:none" d="M4.399408,7.619998L8.798816,-0L4.399406,-7.619999L-4.399409,-7.619997L-8.798816,0L-4.399406,7.619999L4.399408,7.619998z"/>
    <path transform="matrix(1,0,0,-1,66.023003,-72.389999)" style="stroke:#000000;stroke-width:0.05mm;fill:none" d="M4.399408,7.619998L8.798816,-0L4.399406,-7.619999L-4.399409,-7.619997L-8.798816,0L-4.399406,7.619999L4.399408,7.619998z"/>
    <path transform="matrix(1,0,0,-1,137.143005,-36.829998)" style="stroke:#000000;stroke-width:0.05mm;fill:none" d="M4.399408,7.619998L8.798816,-0L4.399406,-7.619999L-4.399409,-7.619997L-8.798816,0L-4.399406,7.619999L4.399408,7.619998z"/>
    <path transform="matrix(1,0,0,-1,172.703003,-125.729996)" style="stroke:#000000;stroke-width:0.05mm;fill:none" d="M4.399408,7.619998L8.798816,-0L4.399406,-7.619999L-4.399409,-7.619997L-8.798816,0L-4.399406,7.619999L4.399408,7.619998z"/>
    <path transform="matrix(1,0,0,-1,48.243,-29.209978)" style="stroke:#000000;stroke-width:0.05mm;fill:none" d="M4.399408,7.619998L8.798816,-0L4.399406,-7.619999L-4.399409,-7.619997L-8.798816,0L-4.399406,7.619999L4.399408,7.619998z"/>
    <path transform="matrix(1,0,0,-1,83.803001,-29.209978)" style="stroke:#000000;stroke-width:0.05mm;fill:none" d="M4.399408,7.619998L8.798816,-0L4.399406,-7.619999L-4.399409,-7.619997L-8.798816,0L-4.399406,7.619999L4.399408,7.619998z"/>
    <path transform="matrix(1,0,0,-1,119.362999,-29.209978)" style="stroke:#000000;stroke-width:0.05mm;fill:none" d="M4.399408,7.619998L8.798816,-0L4.399406,-7.619999L-4.399409,-7.619997L-8.798816,0L-4.399406,7.619999L4.399408,7.619998z"/>
    <path transform="matrix(1,0,0,-1,154.923004,-29.209978)" style="stroke:#000000;stroke-width:0.05mm;fill:none" d="M4.399408,7.619998L8.798816,-0L4.399406,-7.619999L-4.399409,-7.619997L-8.798816,0L-4.399406,7.619999L4.399408,7.619998z"/>
    <path transform="matrix(1,0,0,-1,190.483002,-29.209978)" style="stroke:#000000;stroke-width:0.05mm;fill:none" d="M4.399408,7.619998L8.798816,-0L4.399406,-7.619999L-4.399409,-7.619997L-8.798816,0L-4.399406,7.619999L4.399408,7.619998z"/>
    <path transform="matrix(1,0,0,-1,226.042999,-29.209978)" style="stroke:#000000;stroke-width:0.05mm;fill:none" d="M4.399408,7.619998L8.798816,-0L4.399406,-7.619999L-4.399409,-7.619997L-8.798816,0L-4.399406,7.619999L4.399408,7.619998z"/>
    <path transform="matrix(1,0,0,-1,261.602997,-29.209978)" style="stroke:#000000;stroke-width:0.05mm;fill:none" d="M4.399408,7.619998L8.798816,-0L4.399406,-7.619999L-4.399409,-7.619997L-8.798816,0L-4.399406,7.619999L4.399408,7.619998z"/>
    <path transform="matrix(1,0,0,-1,243.822998,-19.049999)" style="stroke:#000000;stroke-width:0.05mm;fill:none" d="M4.399408,7.619998L8.798816,-0L4.399406,-7.619999L-4.399409,-7.619997L-8.798816,0L-4.399406,7.619999L4.399408,7.619998z"/>
    <path transform="matrix(1,0,0,-1,208.263,-19.049999)" style="stroke:#000000;stroke-width:0.05mm;fill:none" d="M4.399408,7.619998L8.798816,-0L4.399406,-7.619999L-4.399409,-7.619997L-8.798816,0L-4.399406,7.619999L4.399408,7.619998z"/>
    <path transform="matrix(1,0,0,-1,172.703003,-19.049999)" style="stroke:#000000;stroke-width:0.05mm;fill:none" d="M4.399408,7.619998L8.798816,-0L4.399406,-7.619999L-4.399409,-7.619997L-8.798816,0L-4.399406,7.619999L4.399408,7.619998z"/>
    <path transform="matrix(1,0,0,-1,30.463001,-143.51001)" style="stroke:#000000;stroke-width:0.05mm;fill:none" d="M4.399408,7.619998L8.798816,-0L4.399406,-7.619999L-4.399409,-7.619997L-8.798816,0L-4.399406,7.619999L4.399408,7.619998z"/>
    <path transform="matrix(1,0,0,-1,66.023003,-143.51001)" style="stroke:#000000;stroke-width:0.05mm;fill:none" d="M4.399408,7.619998L8.798816,-0L4.399406,-7.619999L-4.399409,-7.619997L-8.798816,0L-4.399406,7.619999L4.399408,7.619998z"/>
    <path transform="matrix(1,0,0,-1,101.583,-143.51001)" style="stroke:#000000;stroke-width:0.05mm;fill:none" d="M4.399408,7.619998L8.798816,-0L4.399406,-7.619999L-4.399409,-7.619997L-8.798816,0L-4.399406,7.619999L4.399408,7.619998z"/>
    <path transform="matrix(1,0,0,-1,137.143005,-143.51001)" style="stroke:#000000;stroke-width:0.05mm;fill:none" d="M4.399408,7.619998L8.798816,-0L4.399406,-7.619999L-4.399409,-7.619997L-8.798816,0L-4.399406,7.619999L4.399408,7.619998z"/>
    <path transform="matrix(1,0,0,-1,48.243,-135.889999)" style="stroke:#000000;stroke-width:0.05mm;fill:none" d="M4.399408,7.619998L8.798816,-0L4.399406,-7.619999L-4.399409,-7.619997L-8.798816,0L-4.399406,7.619999L4.399408,7.619998z"/>
    <path transform="matrix(1,0,0,-1,83.803001,-135.889999)" style="stroke:#000000;stroke-width:0.05mm;fill:none" d="M4.399408,7.619998L8.798816,-0L4.399406,-7.619999L-4.399409,-7.619997L-8.798816,0L-4.399406,7.619999L4.399408,7.619998z"/>
    <path transform="matrix(1,0,0,-1,119.362999,-135.889999)" style="stroke:#000000;stroke-width:0.05mm;fill:none" d="M4.399408,7.619998L8.798816,-0L4.399406,-7.619999L-4.399409,-7.619997L-8.798816,0L-4.399406,7.619999L4.399408,7.619998z"/>
    <path transform="matrix(1,0,0,-1,154.923004,-135.889999)" style="stroke:#000000;stroke-width:0.05mm;fill:none" d="M4.399408,7.619998L8.798816,-0L4.399406,-7.619999L-4.399409,-7.619997L-8.798816,0L-4.399406,7.619999L4.399408,7.619998z"/>
    <path transform="matrix(1,0,0,-1,190.483002,-135.889999)" style="stroke:#000000;stroke-width:0.05mm;fill:none" d="M4.399408,7.619998L8.798816,-0L4.399406,-7.619999L-4.399409,-7.619997L-8.798816,0L-4.399406,7.619999L4.399408,7.619998z"/>
    <path transform="matrix(1,0,0,-1,226.042999,-135.889999)" style="stroke:#000000;stroke-width:0.05mm;fill:none" d="M4.399408,7.619998L8.798816,-0L4.399406,-7.619999L-4.399409,-7.619997L-8.798816,0L-4.399406,7.619999L4.399408,7.619998z"/>
    <path transform="matrix(1,0,0,-1,261.602997,-135.889999)" style="stroke:#000000;stroke-width:0.05mm;fill:none" d="M4.399408,7.619998L8.798816,-0L4.399406,-7.619999L-4.399409,-7.619997L-8.798816,0L-4.399406,7.619999L4.399408,7.619998z"/>
    <rect transform="matrix(1,0,0,-1,200.62529,-171.677002)" style="stroke:#000000;stroke-width:0.05mm;fill:none" x="-12.500615" y="-7.000239" width="25.00123" height="14.000478"/>
    <path transform="matrix(-0,1,1,0,417.721588,-220.971924)" style="stroke:#000000;stroke-width:0.05mm;fill:none" d="M53.897003,-175.926025C53.897003,-177.803787,52.374779,-179.326019,50.497002,-179.326019C48.61924,-179.326019,47.097008,-177.803802,47.097004,-175.926025C47.097004,-174.048264,48.619232,-172.526031,50.497002,-172.526031C52.374771,-172.526031,53.896999,-174.048248,53.897003,-175.926025z"/>
    <path transform="matrix(-0,1,1,0,417.721588,-220.971924)" style="stroke:#000000;stroke-width:0.05mm;fill:none" d="M49.443008,-181.950012L51.443008,-181.950012L51.443008,-182.850006L49.443008,-182.850006L49.443008,-181.950012z"/>
    <path transform="matrix(1,0,0,-1,0,0)" style="stroke:#000000;stroke-width:0.05mm;fill:none" d="M3.809998,193.743423L133.120132,193.621613L133.120132,190.62149L158.520126,190.62149L158.520126,193.621613L287.019989,193.743423"/>
    <path transform="translate(0,-196.404999)" style="stroke:#000000;stroke-width:0.05mm;fill:none" d="M3.809998,193.743423L133.120132,193.621613L133.120132,190.62149L158.520126,190.62149L158.520126,193.621613L287.019989,193.743423"/>
    <path transform="matrix(-1,0,0,-1,290.877991,0)" style="stroke:#000000;stroke-width:0.05mm;fill:none" d="M287.019989,193.743423L287.019989,110.841713L284.019867,110.841713L284.019867,85.441704L287.019989,85.441704L287.019989,2.539993"/>
    <path transform="matrix(1,0,0,-1,0,0)" style="stroke:#000000;stroke-width:0.05mm;fill:none" d="M287.019989,193.743423L287.019989,110.841713L284.019867,110.841713L284.019867,85.441704L287.019989,85.441704L287.019989,2.539993"/>
    <path transform="matrix(1,0,0,-1,154.924011,-175.147003)" style="stroke:#000000;stroke-width:0.05mm;fill:none" d="M12.642855,7.299355L-0.000001,-14.59871L-12.642851,7.29936L12.642855,7.299355z"/>
    <path transform="matrix(-0,-1,1,-0,41.987198,-171.496994)" style="stroke:#000000;stroke-width:0.05mm;fill:none" d="M12.642855,7.299355L-0.000001,-14.59871L-12.642851,7.29936L12.642855,7.299355z"/>
    <path transform="translate(116.824005,-167.847)" style="stroke:#000000;stroke-width:0.05mm;fill:none" d="M12.642855,7.299355L-0.000001,-14.59871L-12.642851,7.29936L12.642855,7.299355z"/>
    <path transform="matrix(0,-1,-1,-0,77.867798,-171.496994)" style="stroke:#000000;stroke-width:0.05mm;fill:none" d="M12.642855,7.299355L-0.000001,-14.59871L-12.642851,7.29936L12.642855,7.299355z"/>
    <circle transform="matrix(1,0,0,-1,276.859985,-182.880005)" style="stroke:#000000;stroke-width:0.05mm;fill:none" r="1.498604" cx="0" cy="0"/>
    <circle transform="matrix(1,0,0,-1,15.2402,-182.880005)" style="stroke:#000000;stroke-width:0.05mm;fill:none" r="1.498604" cx="0" cy="0"/>
    <circle transform="matrix(1,0,0,-1,15.2402,-12.7)" style="stroke:#000000;stroke-width:0.05mm;fill:none" r="1.498604" cx="0" cy="0"/>
    <circle transform="matrix(1,0,0,-1,276.859985,-12.7)" style="stroke:#000000;stroke-width:0.05mm;fill:none" r="1.498604" cx="0" cy="0"/>
    <path transform="matrix(1,0,0,-1,243.822998,-107.949997)" style="stroke:#000000;stroke-width:0.05mm;fill:none" d="M4.399408,7.619998L8.798816,-0L4.399406,-7.619999L-4.399409,-7.619997L-8.798816,0L-4.399406,7.619999L4.399408,7.619998z"/>
</svg>
